<?xml version="1.0" encoding="UTF-8" standalone="no"?>
<!-- Created with Inkscape (http://www.inkscape.org/) -->

<svg
   width="161.56305mm"
   height="148.90755mm"
   viewBox="0 0 161.56305 148.90755"
   version="1.1"
   id="svg5"
   xml:space="preserve"
   inkscape:version="1.2.1 (0f2f062aeb, 2022-09-21, custom)"
   sodipodi:docname="uiabot_figure_tmp.svg"
   xmlns:inkscape="http://www.inkscape.org/namespaces/inkscape"
   xmlns:sodipodi="http://sodipodi.sourceforge.net/DTD/sodipodi-0.dtd"
   xmlns="http://www.w3.org/2000/svg"
   xmlns:svg="http://www.w3.org/2000/svg"><sodipodi:namedview
     id="namedview7"
     pagecolor="#ffffff"
     bordercolor="#000000"
     borderopacity="0.25"
     inkscape:showpageshadow="2"
     inkscape:pageopacity="0.0"
     inkscape:pagecheckerboard="0"
     inkscape:deskcolor="#d1d1d1"
     inkscape:document-units="mm"
     showgrid="false"
     inkscape:zoom="0.93806818"
     inkscape:cx="329.40036"
     inkscape:cy="562.32586"
     inkscape:window-width="3390"
     inkscape:window-height="1376"
     inkscape:window-x="50"
     inkscape:window-y="27"
     inkscape:window-maximized="1"
     inkscape:current-layer="svg5" /><defs
     id="defs2"><clipPath
       clipPathUnits="userSpaceOnUse"
       id="clipPath166"><path
         d="M -1.457931,-1.457931 H 613.45797 V 804.70797 H -1.457931 Z"
         id="path164" /></clipPath><clipPath
       clipPathUnits="userSpaceOnUse"
       id="clipPath214"><path
         d="M 0,0 H 612 V 803.25 H 0 Z"
         id="path212" /></clipPath></defs><g
     inkscape:label="Layer 1"
     inkscape:groupmode="layer"
     id="layer1" /><g
     id="g208"
     transform="matrix(0.35277776,0,0,-0.35277778,-34.07812,254.84747)"><g
       id="g210"
       clip-path="url(#clipPath214)"><path
         d="m 259.6774,646.6382 c -0.2754,-0.7959 -1.1438,-1.2178 -1.9396,-0.9425 -0.7959,0.2754 -1.2178,1.1438 -0.9424,1.9396 0.1473,0.426 0.2084,0.1702 0.1372,0.253 -0.0528,0.0615 -0.6007,0.2505 -1.8165,0.1597 -1.3142,-0.0981 -3.0035,-0.4871 -4.8053,-1.0925 -2.7505,-0.924 -5.6226,-2.4557 -7.7945,-3.6767 -0.9054,-0.5089 -1.5735,-0.9545 -1.7931,-1.1503 -0.038,-0.034 0.0566,0.0862 0.009,0.0205 -0.0215,-0.0294 0.1189,0.2071 0.0849,0.1399 -0.0319,-0.0627 0.1259,0.3726 0.0969,0.2593 -0.0266,-0.1039 0.0372,0.5362 0.0419,0.3848 0.009,-0.2759 -0.4998,1.0812 -0.3113,0.8452 0.137,-0.1717 -0.5482,0.4238 -0.4198,0.3537 0.179,-0.0977 -0.4587,0.1469 -0.3814,0.1344 0.0677,-0.011 -0.1072,0.01 -0.1022,0.01 0.7848,0.007 3.1428,0.8393 5.6471,1.7626 3.2513,1.1992 6.5229,3.0177 9.4254,4.1402 1.7092,0.661 3.2846,1.135 4.8465,0.8236 2.218,-0.4417 3.2533,-2.6255 3.7126,-4.7032 0.7067,-3.1968 0.6165,-7.0529 1.1237,-10.1874 0.2423,-1.4976 0.6229,-2.7329 1.1191,-3.4414 0.4493,-0.6415 0.8766,-0.9044 1.8222,-0.8431 0.8404,0.0545 1.5658,-0.5826 1.6203,-1.423 0.0545,-0.8403 -0.5826,-1.5658 -1.423,-1.6203 -2.4935,-0.1616 -4.4579,1.558 -5.2895,3.5716 -1.2614,3.0543 -1.2167,6.9352 -1.5312,10.3165 -0.1523,1.6379 -0.3695,3.0912 -0.7358,4.0798 -0.3329,0.8985 -0.6464,1.1863 -1.0143,1.2596 -0.5219,0.104 -1.6617,-0.1013 -3.1506,-0.6771 -2.6145,-1.0111 -5.9442,-2.8565 -9.4702,-4.1572 -2.4969,-0.9204 -4.7201,-1.9341 -6.6753,-1.9507 -0.2218,-0.002 -0.4765,-0.003 -0.845,0.1517 -0.3555,0.1494 -0.8681,0.5968 -0.9858,1.1964 -0.192,0.9786 0.2836,1.3412 0.5054,1.5838 0.6165,0.6742 1.4404,1.1385 2.5794,1.7787 2.2349,1.2564 5.2316,2.8724 8.3175,3.9091 2.6299,0.8837 5.0833,1.4259 7.1339,1.2441 1.0047,-0.0892 2.039,-0.3611 2.7724,-1.2147 0.7496,-0.8725 0.801,-2.1698 0.4316,-3.2375"
         style="fill:#ed3624;fill-opacity:1;fill-rule:nonzero;stroke:none"
         id="path216" /><path
         d="m 426.77,438.1837 c 0.0602,-0.84 -0.5721,-1.5697 -1.412,-1.6298 -0.84,-0.0601 -1.5697,0.5721 -1.6298,1.4121 0,0 0.1739,-0.402 0.0875,-0.2442 -0.09,0.1643 0.7361,-0.5685 0.5115,-0.4673 -0.2028,0.0914 0.5595,-0.083 0.4681,-0.0902 -0.1309,-0.0103 0.0407,0.01 -0.1373,-0.0862 -1.8159,-0.9822 -5.9539,-5.3392 -10.5779,-10.6697 -5.5644,-6.4147 -11.2607,-14.1831 -17.5517,-20.4301 -4.3327,-4.3021 -9.0502,-7.4742 -11.6929,-9.6228 l -1.0392,-0.8051 c -0.2325,-0.1823 -0.1912,-0.0945 -0.2582,-0.202 -0.0569,-0.0911 0.1777,0.5675 0.1485,0.3974 -0.0281,-0.1634 -0.0614,0.659 -0.0209,0.5025 0.0369,-0.1427 -0.2029,0.4185 -0.1491,0.3376 0.0918,-0.1379 -0.1642,0.1822 -0.1593,0.1788 0.2356,-0.1654 2.1456,-0.6957 4.2336,-1.1312 6.2587,-1.3053 13.6188,-4.7262 20.4278,-10.4822 3.7488,-3.1689 6.7627,-6.8564 8.9576,-10.1099 1.1691,-1.7332 1.9604,-3.3275 2.5979,-4.5187 0.2764,-0.5169 0.4194,-0.9879 0.5232,-1.3119 l 0.1023,-0.2984 c 0.0112,-0.0266 -0.2406,0.2869 -0.12,0.159 0.1576,-0.1674 -0.8468,0.3654 -0.6298,0.3316 0.154,-0.0241 -0.4249,-0.0259 -0.3491,-0.009 0.1802,0.0414 -0.0712,-0.0301 0.0714,0.1108 0.2388,0.2357 0.7483,1.5 1.4709,2.8671 1.6973,3.2122 4.6359,6.7115 8.25,10.4506 3.7067,3.8348 8.0583,7.8088 12.5978,11.7218 3.5633,3.0716 6.8219,5.8094 9.3943,8.2485 2.2929,2.1746 3.8976,3.8846 4.9285,5.3472 0.9679,1.3734 1.4467,2.5384 1.6662,3.836 0.3007,1.7776 -0.4156,3.8434 -2.6857,6.5493 -1.2282,1.4638 -2.611,3.0396 -4.7787,4.6571 -4.91,3.6626 -13.0403,7.0453 -20.4428,9.704 -3.6067,1.2954 -6.9009,2.3556 -9.4374,3.1143 l -2.9068,0.825 -0.7656,0.1867 -0.1205,0.0236 c -0.008,10e-4 0.1851,-0.009 0.1085,-0.008 -0.0921,0.002 1.4641,0.6648 0.8507,0.2537 -0.6995,-0.4689 -1.6467,-0.2819 -2.1155,0.4177 -0.4689,0.6995 -0.2819,1.6467 0.4177,2.1156 1.0935,0.7329 1.0272,0.2592 1.1531,0.2419 0.8786,-0.1205 2.4827,-0.5938 4.9783,-1.354 8.4155,-2.5632 22.1047,-7.1095 30.1039,-13.0766 2.4308,-1.8138 4.0217,-3.6281 5.2913,-5.1412 2.5877,-3.0844 3.8449,-6.1304 3.3564,-9.0181 -0.5885,-3.479 -2.8979,-6.5199 -7.5031,-10.8875 -2.6691,-2.5308 -5.951,-5.2848 -9.5017,-8.3455 -4.4926,-3.8726 -8.7831,-7.7935 -12.3962,-11.5314 -3.5101,-3.6314 -6.2901,-6.9999 -7.7464,-9.7561 -0.5801,-1.0974 -0.8952,-2.4976 -2.0245,-3.6122 -0.3581,-0.3537 -0.7563,-0.6664 -1.3088,-0.8504 -0.5806,-0.1933 -1.558,-0.1292 -2.146,0.4952 -0.9548,1.0127 -0.7368,1.6589 -0.9749,2.1041 -0.6635,1.2398 -1.3921,2.7025 -2.4371,4.2518 -2.0647,3.0606 -4.9241,6.5496 -8.3982,9.4864 -6.4277,5.4336 -13.3812,8.637 -19.0816,9.8258 -1.4719,0.307 -2.8625,0.5932 -3.9936,0.9765 -0.5514,0.1869 -1.0527,0.3712 -1.5457,0.778 -0.5303,0.4376 -0.9777,1.7604 -0.4778,2.5609 0.5878,0.9416 1.2744,1.2006 1.9606,1.7584 2.8224,2.2947 7.3766,5.358 11.4677,9.4204 6.065,6.0225 11.7308,13.7325 17.3969,20.2645 3.2617,3.76 6.2481,7.0326 8.6777,9.2447 1.1442,1.0419 2.0971,1.8324 3.094,2.2778 0.5017,0.2242 1.1452,0.4619 1.9544,0.1386 0.8465,-0.3382 1.2228,-1.2592 1.2675,-1.8842"
         style="fill:#000000;fill-opacity:1;fill-rule:nonzero;stroke:none"
         id="path218" /><path
         d="m 399.4895,377.1941 c 0.7385,0.4047 1.6653,0.1342 2.07,-0.6043 0.4048,-0.7385 0.1342,-1.6653 -0.6043,-2.0701 -0.9395,-0.5148 -1.2062,-0.5675 -2.6512,-1.9985 -0.5984,-0.5926 -1.5639,-0.5879 -2.1564,0.0105 -0.5926,0.5984 -0.5879,1.5638 0.0105,2.1564 1.596,1.5806 2.5067,2.054 3.3314,2.506"
         style="fill:#000000;fill-opacity:1;fill-rule:nonzero;stroke:none"
         id="path220" /><path
         d="m 195.2513,561.9505 c -0.3297,-0.7749 -1.2251,-1.1359 -2.0001,-0.8063 -0.7749,0.3297 -1.1359,1.2251 -0.8062,2 1.7576,4.132 5.3348,6.4413 9.2547,10.255 1.8287,1.7793 3.8432,4.1871 6.3327,7.0903 2.7644,3.224 5.8159,7.0087 8.943,10.6661 4.69,5.4843 9.5333,10.148 13.9756,15.0819 6.2975,6.9951 11.8696,14.644 16.171,21.1808 2.0684,3.1435 3.7814,5.9427 5.058,8.1814 1.1958,2.0971 1.9624,3.6763 2.0751,4.0625 0.236,0.8084 1.0826,1.2725 1.891,1.0366 0.8084,-0.236 1.2725,-1.0826 1.0365,-1.891 -0.3136,-1.0748 -1.1164,-2.5496 -2.3534,-4.7188 -2.0003,-3.5077 -4.9536,-8.215 -8.6232,-13.4398 -3.765,-5.3607 -8.1615,-11.0904 -12.9885,-16.4522 -4.528,-5.029 -9.3448,-9.6682 -13.9243,-15.0233 -3.0923,-3.6168 -6.1409,-7.3982 -8.9457,-10.6693 -2.4818,-2.8942 -4.5282,-5.3519 -6.5212,-7.291 -4.089,-3.9783 -7.2347,-6.112 -8.575,-9.2629"
         style="fill:#ed3624;fill-opacity:1;fill-rule:nonzero;stroke:none"
         id="path222" /><path
         d="m 535.0432,500.5167 c 0.1956,-0.8191 -0.3098,-1.6417 -1.1289,-1.8373 -0.8191,-0.1957 -1.6417,0.3097 -1.8374,1.1288 -0.3982,1.6671 -0.057,3.1601 -0.0414,4.0169 0.001,0.0796 0.0803,-0.2596 0.0553,-0.2181 -0.0414,0.0688 -0.3,0.1652 -0.4301,0.186 l -0.1166,-0.0612 c -0.0272,-0.0193 0.0489,0.0876 0.0109,0.0273 -0.0231,-0.0367 0.1113,0.2992 0.0839,0.1985 -0.0295,-0.1086 -0.0109,0.6268 0.0193,0.4452 0.037,-0.2223 -0.2852,0.6613 -0.2034,0.5328 0.0749,-0.1176 -0.2603,0.3029 -0.2033,0.2486 0.0995,-0.0951 -0.1957,0.1489 -0.1746,0.1364 0.0246,-0.0147 0.951,-0.3327 1.8368,-0.9929 0.9361,-0.6977 1.8532,-2.0393 1.7848,-3.7137 -0.0343,-0.8414 -0.7443,-1.4957 -1.5857,-1.4614 -0.8415,0.0344 -1.4957,0.7444 -1.4614,1.5858 0.0289,0.7076 -0.2351,0.9481 -0.7351,1.2638 l -0.8672,0.4347 -0.5087,0.2493 c -0.2156,0.1254 -0.7321,0.2666 -0.8904,1.2155 -0.2018,1.2134 0.5142,1.8804 1.1282,2.3165 0.6163,0.4377 1.4306,0.7351 2.3633,0.5864 0.5785,-0.0925 1.1671,-0.3083 1.7422,-0.7359 0.5963,-0.4435 1.2197,-1.2599 1.2009,-2.2988 -0.0227,-1.2564 -0.2397,-2.4233 -0.0414,-3.2532"
         style="fill:#ed3624;fill-opacity:1;fill-rule:nonzero;stroke:none"
         id="path224" /><path
         d="m 429.9388,409.404 c 0.0623,-0.8398 -0.5681,-1.5711 -1.4079,-1.6334 -0.8399,-0.0623 -1.5711,0.5681 -1.6334,1.4079 -0.136,1.8351 1.0316,3.331 2.5653,5.0079 1.6299,1.7819 3.9166,3.9051 6.8012,6.7413 7.0563,6.9386 16.5046,16.5195 24.2607,26.703 5.4736,7.1861 9.5887,14.9932 13.7625,21.4734 2.2984,3.5689 4.6845,6.6439 6.8938,9.2776 2.1432,2.5549 4.0894,4.6551 5.558,6.3451 1.4896,1.7147 2.4948,2.8443 2.9381,3.6952 0.1122,0.2151 0.1526,0.5536 0.2202,1.2258 0.1611,1.6031 0.7498,2.9299 0.7626,3.6284 0.0135,0.7379 0.0708,0.6259 -0.1717,0.594 -0.4354,-0.0574 -2.4187,-1.8297 -4.5457,-3.4538 -2,-1.5264 -4.203,-2.5705 -5.8585,-3.5115 l -2.3871,-1.274 -1.8513,-1.1212 c -0.0763,-0.0555 0.3962,0.4075 0.2821,0.2675 -0.1218,-0.1496 0.378,1.1309 0.3288,0.7607 -0.0508,-0.3815 -0.4865,1.3797 -0.2839,1.1048 0.1872,-0.2539 -0.6628,0.5202 -0.5217,0.4467 0.2484,-0.1294 -0.5665,0.1683 -0.4735,0.1544 0.1569,-0.0236 -0.3135,0.0134 -0.2664,0.0152 0.1391,0.005 -0.1273,-0.0132 -0.1015,-0.007 0.1235,0.0277 0.5053,0.1439 1.0603,0.4339 1.3741,0.7189 3.2486,2.0694 5.2762,3.4309 1.8444,1.2389 3.6668,2.6397 5.3342,3.8719 1.7055,1.2603 2.9202,2.3554 4.2522,3.0215 1.8787,0.9404 4.0532,0.2253 5.2865,-1.1003 1.8589,-1.9981 2.9504,-5.0053 4.4278,-7.7349 1.4556,-2.6891 3.148,-4.8949 5.2159,-5.4825 0.8101,-0.2302 1.2801,-1.0735 1.0499,-1.8836 -0.2302,-0.8101 -1.0735,-1.2802 -1.8835,-1.05 -4.5194,1.2843 -6.6609,6.077 -8.5289,9.8364 -0.9017,1.8147 -1.7321,3.3969 -2.514,4.2373 -0.681,0.732 -0.897,0.8468 -1.6892,0.4503 -0.776,-0.3881 -2.0222,-1.43 -3.8043,-2.7468 -1.64,-1.212 -3.4985,-2.6427 -5.4463,-3.951 -1.9841,-1.3323 -3.8697,-2.7156 -5.5634,-3.6017 -0.6045,-0.3159 -1.1107,-0.5124 -1.5082,-0.6294 l -0.5089,-0.1182 -0.3208,-0.025 c -0.0961,10e-4 -0.1971,-0.0719 -0.6643,0.1549 -0.293,0.1422 -0.9473,0.7482 -0.8496,1.5567 0.0895,0.7399 0.4626,0.939 0.6193,1.053 0.4069,0.2967 1.1706,0.7737 2.175,1.327 l 2.3515,1.2542 c 1.7741,1.0083 3.8316,1.9994 5.5151,3.2843 1.863,1.4226 3.4402,3.7162 5.9978,4.0532 1.0239,0.1349 2.123,-0.2638 2.7679,-1.0207 0.6357,-0.7461 0.8687,-1.7029 0.8513,-2.6527 -0.0298,-1.6292 -0.6844,-2.9527 -0.7774,-3.8776 -0.0635,-0.6321 -0.093,-1.4539 -0.5502,-2.3305 -0.7219,-1.3853 -1.8638,-2.586 -3.3404,-4.2856 -3.1021,-3.5699 -7.8082,-8.4701 -12.1899,-15.2738 -4.0797,-6.334 -8.2433,-14.2431 -13.9003,-21.67 -7.9147,-10.3916 -17.4521,-20.0515 -24.5487,-27.0297 -2.9093,-2.8605 -5.1916,-4.9879 -6.6889,-6.625 -1.361,-1.488 -1.7949,-2.4469 -1.7744,-2.7241"
         style="fill:#ed3624;fill-opacity:1;fill-rule:nonzero;stroke:none"
         id="path226" /><path
         d="m 278.8699,473.5319 c 0.0648,0.8397 0.7979,1.4678 1.6376,1.4031 0.8396,-0.0648 1.4678,-0.7979 1.4031,-1.6376 -0.1716,-2.2246 0.1725,-4.8649 1.3776,-7.5076 0.5657,-1.2404 1.3028,-2.5175 2.0618,-3.4822 0.3593,-0.457 0.6259,-0.6892 1.1736,-0.935 0.8875,-0.3982 2.0022,-0.7349 3.2318,-1.009 1.4501,-0.323 3.0565,-0.5391 4.5125,-0.7263 4.121,-0.5302 6.5409,-0.682 9.6125,-0.3896 3.772,0.3592 7.3182,0.7872 10.8664,1.9465 1.7951,0.5863 3.54,1.3564 5.0295,2.1486 0.6727,0.3578 1.2862,0.668 1.8812,1.0666 2.1404,1.4341 4.6199,4.1026 6.176,6.1694 l 0.7284,1.0666 0.1014,0.2154 c 0.004,0.013 -0.003,-0.2597 -0.009,-0.1475 -0.0128,0.2385 0.3883,-0.7481 0.2676,-0.6244 -0.0927,0.0951 0.1448,-0.1114 0.1323,-0.106 -0.4002,0.1729 -2.7148,0.1797 -4.9101,-0.1793 -1.2734,-0.2081 -2.5267,-0.4476 -3.677,-0.7272 -1.0451,-0.2547 -2.0112,-0.5535 -2.6435,-0.7589 -0.0267,-0.009 0.307,0.1605 0.1964,0.0934 -0.0533,-0.0323 0.2772,0.2192 0.1982,0.148 -0.0784,-0.0707 0.3526,0.4647 0.2621,0.3165 -0.0893,-0.1461 0.2346,0.824 0.2043,0.5844 -0.029,-0.2294 -0.1582,0.9147 -0.0791,0.6988 0.0726,-0.1982 -0.388,0.5916 -0.2836,0.4743 0.1845,-0.2072 -0.5879,0.4027 -0.4692,0.3485 0.1857,-0.0848 -0.3896,0.1047 -0.3349,0.0982 l 0.2057,0.049 c 0.537,0.134 1.8962,0.998 3.411,1.6866 1.4227,0.6466 2.8743,1.1592 4.4311,1.2408 1.1738,0.0615 2.722,0.2034 4.1746,-0.7029 1.8993,-1.1853 1.7289,-3.1576 2.2264,-4.3353 1.6196,-3.8336 6.3741,-7.259 6.9173,-7.4614 0.7891,-0.2941 1.1904,-1.1722 0.8963,-1.9613 -0.2941,-0.7892 -1.1722,-1.1905 -1.9613,-0.8964 -1.0953,0.4082 -2.3758,1.4023 -4.043,2.9468 -1.7359,1.6084 -3.5632,3.6873 -4.6186,6.1855 -0.3569,0.8448 -0.5573,1.6516 -0.7627,2.2528 l -0.2619,0.6305 c -0.0609,0.1067 0.068,0.005 -0.007,0.0515 -0.4485,0.2799 -1.2756,0.3037 -2.4005,0.2447 -0.9994,-0.0524 -2.0863,-0.407 -3.3287,-0.9716 -1.2204,-0.5548 -2.4547,-1.4999 -3.9342,-1.8691 -0.5517,-0.1378 -0.9723,-0.2366 -1.613,-0.0583 -0.1828,0.0509 -0.4303,0.1175 -0.7372,0.4218 -0.2537,0.2517 -0.5098,0.7629 -0.4572,1.2733 0.0753,0.73 0.4922,1.0189 0.7153,1.1683 l 0.5108,0.243 c 0.6768,0.2198 1.7083,0.5398 2.865,0.8217 1.2528,0.3045 2.5772,0.5565 3.906,0.7737 1.5751,0.2576 3.1664,0.4205 4.557,0.3596 0.6805,-0.0298 1.3135,-0.1005 1.9357,-0.3417 0.6411,-0.2485 1.4998,-0.9269 1.5549,-1.9549 0.0734,-1.3715 -0.6801,-2.1365 -1.4302,-3.1322 -1.7284,-2.2957 -4.2809,-5.1037 -6.9147,-6.8683 -0.7765,-0.5202 -1.5036,-0.8836 -2.1467,-1.2256 -1.6369,-0.8705 -3.5273,-1.7059 -5.5145,-2.3549 -3.8919,-1.2716 -7.691,-1.7185 -11.5243,-2.0835 -3.3155,-0.3156 -6.084,-0.1404 -10.2905,0.4007 -1.4761,0.1898 -3.1638,0.4129 -4.7869,0.7745 -1.3693,0.3052 -2.6651,0.6864 -3.8171,1.2033 -0.9778,0.4389 -1.7465,1.1001 -2.322,1.832 -0.9603,1.2205 -1.7873,2.6722 -2.4395,4.1021 -1.4328,3.1422 -1.8524,6.2975 -1.6435,9.0075"
         style="fill:#ed3624;fill-opacity:1;fill-rule:nonzero;stroke:none"
         id="path228" /><path
         d="m 319.6315,441.1812 c -0.346,-0.7678 -1.2489,-1.1097 -2.0166,-0.7637 -0.7678,0.3459 -1.1098,1.2488 -0.7638,2.0166 0.025,0.0554 0.24,-0.7365 0.133,-0.6232 -0.0642,0.0681 -0.0871,0.0577 -0.4098,0.1169 -0.744,0.1362 -2.9363,-0.7763 -3.2964,-1.0681 -0.6543,-0.5303 -1.6145,-0.4297 -2.1447,0.2246 -0.53,0.654 -0.4298,1.6138 0.2239,2.1441 0.7146,0.5798 1.0702,0.4061 1.3527,0.4033 0.8051,-0.008 1.6438,-0.1434 2.2052,-0.074 1.2538,0.1554 2.3221,0.3299 3.2113,0.2411 0.838,-0.0837 1.4494,-0.8309 1.3657,-1.6688 -0.0837,-0.838 -0.8308,-1.4495 -1.6688,-1.3658 l -2.5337,-0.2331 c -0.779,-0.0962 -1.4868,-0.0299 -2.0356,0.014 l -0.5736,0.0371 c -0.0413,4e-4 0.0721,0.0146 0.011,0.005 -0.0373,-0.006 0.2772,0.0792 0.1867,0.0476 -0.0988,-0.0344 0.5632,0.3572 0.4005,0.2252 l -1.9207,2.3688 c 1.1731,0.9506 3.3165,2.147 5.7661,1.6985 0.7438,-0.1364 1.4839,-0.3941 2.0776,-1.0229 0.6181,-0.6546 0.8196,-1.8589 0.43,-2.7234"
         style="fill:#ed3624;fill-opacity:1;fill-rule:nonzero;stroke:none"
         id="path230" /><path
         d="m 157.4304,523.4739 c 0.8352,0.1081 1.5998,-0.4814 1.7078,-1.3166 0.108,-0.8352 -0.4814,-1.5998 -1.3166,-1.7078 -0.4029,-0.0522 -0.0655,0.2035 -0.1579,-0.1704 -0.1225,-0.4954 -0.2492,-1.8969 -1.6151,-2.5695 -0.7555,-0.372 -1.6695,-0.0611 -2.0415,0.6945 -0.372,0.7555 -0.0611,1.6695 0.6944,2.0415 0.0884,0.0436 -0.1895,-0.1967 -0.173,-0.1538 0.052,0.1354 0.0792,0.6671 0.4002,1.4061 0.3499,0.8055 1.351,1.6272 2.5017,1.776"
         style="fill:#000000;fill-opacity:1;fill-rule:nonzero;stroke:none"
         id="path232" /><path
         d="m 255.7543,560.2188 c 0.4915,0.6838 1.4443,0.8397 2.1281,0.3482 0.6839,-0.4916 0.8397,-1.4444 0.3482,-2.1282 -1.0869,-1.5121 -2.7361,-4.6656 -5.2227,-8.9328 -2.6454,-4.5399 -6.1564,-10.2109 -10.8948,-16.7165 -4.9345,-6.7748 -11.1066,-13.6408 -17.4296,-21.0332 -3.9068,-4.568 -7.8533,-9.5978 -12.3103,-14.9222 -5.6762,-6.7807 -12.1555,-13.8209 -18.6647,-20.6572 -4.3982,-4.6189 -8.9262,-8.8336 -12.859,-12.9248 -7.9681,-8.2885 -14.5983,-15.6747 -20.3663,-22.2514 -5.6029,-6.3885 -10.4141,-12.0382 -14.9368,-17.0274 -5.6474,-6.2297 -10.1094,-12.369 -13.4337,-17.2568 -1.4031,-2.0634 -2.4152,-3.8589 -3.2162,-5.2972 -0.758,-1.361 -1.3517,-2.1691 -1.493,-2.6727 -0.2187,-0.7801 -0.3278,-0.7734 0.1767,-1.343 0.3815,-0.4305 1.7681,-1.0559 3.2069,-1.9796 2.3056,-1.4807 4.1175,-3.6971 6.9862,-5.8277 4.4046,-3.2702 11.1872,-6.6393 18.6072,-10.9695 3.8856,-2.2676 7.8661,-4.6932 11.6527,-7.1963 6.2923,-4.1585 11.5917,-8.8804 17.1839,-13.2244 7.4998,-5.8253 16.1731,-11.2435 24.6957,-16.8816 5.811,-3.8442 11.3201,-7.633 16.1113,-10.964 7.442,-5.1735 12.9547,-9.5924 18.5697,-13.1172 4.1072,-2.5776 8.5295,-4.5014 12.2918,-6.3188 2.5232,-1.2189 4.5948,-2.2927 6.2269,-3.385 0.9629,-0.644 1.6342,-1.3796 2.1798,-1.9847 0.7817,-0.866 1.2625,-1.6259 1.4973,-1.7925 l 0.6291,-0.4667 -0.2407,0.0296 c 0.7632,0.2688 2.6179,2.7154 4.7363,5.2004 1.9419,2.2781 4.2399,4.7296 6.6298,7.7421 3.9992,5.0411 8.3313,11.4236 12.9249,17.874 9.1511,12.8493 18.7799,24.9716 28.1419,36.3658 9.2513,11.2596 18.1654,21.7075 25.998,31.3509 6.0935,7.5019 11.97,14.1282 17.4097,20.0093 5.3118,5.7428 10.1749,10.7386 14.3613,15.1266 5.3302,5.5862 10.4839,10.9216 14.9754,15.4669 1.865,1.8874 3.6275,3.5512 5.0806,4.904 1.0055,0.9362 1.7798,1.5841 2.2805,2.1682 0.5999,0.6994 1.0302,1.049 1.1471,1.2908 0.3352,0.6936 0.4383,1.7204 0.1707,2.6798 -0.1657,0.5941 -1.3306,1.6601 -2.7303,2.7037 -3.7953,2.8302 -7.7811,4.8813 -12.4602,7.8347 -8.7654,5.5333 -21.1266,12.0277 -32.0678,18.8411 l -23.6361,14.8168 c -8.237,5.1422 -18.7835,10.5551 -28.4653,15.7542 -6.4002,3.4366 -11.614,7.0607 -15.8795,11.5985 -2.3185,2.4664 -4.1427,5.1241 -6.4255,7.181 -3.9111,3.5249 -9.9299,5.6831 -14.7776,7.0969 -2.626,0.7658 -4.9757,0.8895 -6.8289,1.8988 -0.9444,0.5144 -1.8153,1.6025 -1.8606,2.844 -0.045,1.2353 0.4617,2.4424 1.2745,3.8742 0.4157,0.7324 1.3465,0.9891 2.0788,0.5733 0.7324,-0.4157 0.9891,-1.3464 0.5733,-2.0788 -0.6785,-1.1953 -0.8887,-1.9887 -0.8789,-2.2576 0.008,-0.2192 0.0517,-0.2877 1.1571,-0.6185 1.2522,-0.3747 3.157,-0.6715 5.3385,-1.3077 5.0177,-1.4633 11.409,-3.6527 15.9654,-7.7591 2.6078,-2.3498 4.4766,-5.0925 6.606,-7.3577 3.9823,-4.2366 8.8872,-7.6644 15.1002,-11.0005 9.6567,-5.1857 20.2389,-10.6111 28.6374,-15.854 l 23.6333,-14.815 c 10.8194,-6.7376 23.1598,-13.2177 32.0836,-18.851 4.5684,-2.8836 8.6282,-4.9658 12.6553,-7.9688 1.4465,-1.0785 3.2611,-2.2363 3.8448,-4.3291 0.4619,-1.6557 0.333,-3.3872 -0.3625,-4.8262 -0.5056,-1.0463 -1.233,-1.5471 -1.5777,-1.949 -0.7312,-0.8527 -1.5706,-1.5334 -2.5175,-2.415 -1.4386,-1.3394 -3.1689,-2.9732 -4.9894,-4.8155 -4.4735,-4.5271 -9.617,-9.8517 -14.9382,-15.4286 -4.1996,-4.4018 -9.0469,-9.3815 -14.329,-15.0922 -5.4069,-5.8455 -11.2382,-12.4213 -17.2813,-19.8612 -7.8635,-9.6814 -16.7776,-20.1291 -26.0089,-31.3642 -9.3373,-11.3642 -18.9219,-23.4323 -28.0141,-36.1989 -4.5734,-6.422 -8.9185,-12.8303 -13.0199,-18.0002 -2.4744,-3.1192 -4.8173,-5.6188 -6.6981,-7.8252 -1.9778,-2.3201 -3.4202,-5.1744 -6.0442,-6.0986 -0.7441,-0.2619 -1.6257,-0.1468 -2.1805,0.142 -0.5141,0.2677 -0.7862,0.5432 -0.9848,0.6841 -1.0468,0.7426 -1.4859,1.6704 -1.9976,2.2373 -0.5176,0.574 -0.9856,1.0743 -1.6114,1.4928 -1.4199,0.9503 -3.3884,1.9809 -5.8575,3.1736 -3.6967,1.7857 -8.2397,3.7539 -12.5866,6.4819 -5.8049,3.644 -11.327,8.0781 -18.6892,13.1962 -4.7805,3.3236 -10.2707,7.0993 -16.0531,10.9246 -8.4891,5.6159 -17.221,11.0646 -24.8839,17.0165 -5.6825,4.4142 -10.9174,9.0724 -16.9946,13.0888 -3.7243,2.4617 -7.659,4.8601 -11.5083,7.1065 -7.3325,4.2791 -14.1364,7.6269 -18.8882,11.155 -3.1389,2.3312 -5.0616,4.5832 -6.8159,5.7099 -1.14,0.7319 -2.6913,1.2252 -3.8417,2.5235 -1.1946,1.3486 -1.1283,3.1264 -0.8305,4.1888 0.3659,1.3043 1.1135,2.163 1.765,3.333 0.8109,1.456 1.8777,3.3504 3.3588,5.5283 3.3732,4.9598 7.9174,11.2158 13.696,17.5901 4.4801,4.9422 9.2862,10.5851 14.9035,16.99 5.7865,6.5978 12.4514,14.0229 20.4605,22.3541 4.0078,4.1691 8.5257,8.374 12.849,12.9143 6.4825,6.8083 12.9225,13.8073 18.5348,20.5118 4.423,5.2836 8.3709,10.3163 12.3312,14.9468 6.3452,7.4184 12.4736,14.2445 17.2821,20.8465 4.664,6.4034 8.1151,11.9774 10.725,16.4564 2.4573,4.217 4.0442,7.3173 5.3813,9.1774"
         style="fill:#000000;fill-opacity:1;fill-rule:nonzero;stroke:none"
         id="path234" /><path
         d="m 111.8585,628.2503 c -0.4702,-0.6986 -1.4178,-0.8838 -2.1164,-0.4136 -0.6986,0.4703 -0.8838,1.4178 -0.4136,2.1164 0.5196,0.7721 0.5962,1.6217 2.1664,1.7285 0.703,0.0479 1.455,-0.5595 1.6588,-1.0101 0.5767,-1.2754 0.1471,-2.0178 -0.1334,-3.2452 -0.2966,-1.2978 -0.7621,-2.894 -1.3629,-4.7258 -0.8754,-2.6693 -2.0162,-5.6407 -3.1665,-8.6098 -2.3269,-6.0062 -4.5955,-11.3724 -5.8641,-15.3066 -0.5874,-1.8217 -0.8968,-3.2613 -0.8726,-3.9263 l 0.0233,-0.2052 c 0.004,-0.0122 -0.1452,0.2132 -0.0854,0.1406 0.0975,-0.1185 -0.5164,0.2751 -0.3997,0.2496 0.0969,-0.0212 -0.0925,10e-4 0.0121,0.0258 0.8203,0.1903 1.6396,-0.3205 1.8299,-1.1408 0.1903,-0.8204 -0.3205,-1.6397 -1.1408,-1.83 -0.7499,-0.1739 -1.7265,-0.1167 -2.4198,0.5097 -1.1767,1.063 -0.96118,2.4545 -0.72635,3.7917 0.37024,2.1081 1.31785,4.7589 2.52355,7.9143 l 4.2762,10.8789 c 1.146,2.9579 2.2707,5.8919 3.1124,8.4584 0.8774,2.6754 1.4353,4.8105 1.5272,5.7883 0.0181,0.1928 0.0529,0.035 0.0228,0.1657 -0.0152,0.0659 0.249,-0.5016 0.1468,-0.3404 -0.0972,0.1533 0.7818,-0.6072 0.5266,-0.4767 -0.2264,0.1158 0.9084,-0.1389 0.6983,-0.1499 -0.1754,-0.009 0.5032,0.1265 0.4066,0.0879 -0.1534,-0.0614 0.2535,0.1477 0.2327,0.1306 z"
         style="fill:#ed3624;fill-opacity:1;fill-rule:nonzero;stroke:none"
         id="path236" /><path
         d="m 418.6641,404.3939 c 0.29,0.7906 1.166,1.1965 1.9567,0.9065 0.7906,-0.29 1.1964,-1.166 0.9064,-1.9567 -0.444,-1.2105 -0.661,-1.7682 -2.6922,-3.9195 -0.5781,-0.6123 -1.5432,-0.64 -2.1555,-0.0619 -0.6124,0.5782 -0.6401,1.5432 -0.0619,2.1556 l 1.6736,1.83 z"
         style="fill:#000000;fill-opacity:1;fill-rule:nonzero;stroke:none"
         id="path238" /><path
         d="m 188.1652,595.6454 c 0.3098,0.7831 1.1957,1.1668 1.9788,0.8571 0.7831,-0.3098 1.1669,-1.1957 0.8571,-1.9788 -0.8926,-2.2567 -2.3298,-4.6083 -4.1765,-7.2518 -1.9101,-2.7343 -4.2658,-5.7828 -6.9925,-9.3174 -4.6493,-6.0271 -10.3881,-13.3801 -15.5078,-19.3789 -2.864,-3.3553 -5.3566,-5.8611 -7.0643,-7.8009 -1.6204,-1.8404 -2.4041,-3.0986 -2.3767,-3.5649 0.0241,-0.4105 0.3392,-0.9638 1.1938,-1.6406 2.9839,-2.3635 9.8679,-4.4177 16.5825,-7.8799 3.8875,-2.0041 8.316,-3.7904 12.0597,-5.6373 1.7287,-0.853 3.3385,-1.6247 4.7358,-2.6103 1.9208,-1.3553 2.8818,-3.2314 3.6225,-4.275 l 0.6444,-0.8285 c 0.0424,-0.0322 -0.4984,0.0725 -0.4773,0.0816 1.3985,0.6034 4.0009,2.9949 6.9161,6.3534 3.0547,3.5192 6.399,7.9403 9.6671,12.7057 4.7552,6.9335 9.4268,13.347 12.8794,17.7751 0.9517,1.2207 1.7449,2.1112 2.3171,3.0055 0.7693,1.202 1.4256,2.401 1.6648,3.4337 0.1591,0.6866 -0.5004,2.0577 -1.4361,3.1871 -0.9815,1.1843 -2.6952,1.9874 -5.1483,3.4579 -2.8533,1.7103 -5.8033,4.3057 -9.8159,6.7638 -5.6875,3.4834 -13.092,6.7018 -19.3948,9.1645 -3.7674,1.4721 -7.0573,2.5054 -9.1198,3.2369 l -1.2062,0.4649 c -0.2486,0.111 -0.4671,0.1592 -0.8382,0.5328 -0.1637,0.1648 -0.441,0.4583 -0.4744,1.0469 -0.0309,0.5447 0.3012,1.0841 0.5847,1.3135 0.7979,0.6457 1.0521,0.4053 1.3943,0.4139 l 1.2709,-0.0363 c 0.8407,-0.0496 1.482,-0.7712 1.4325,-1.6119 -0.0495,-0.8407 -0.7711,-1.482 -1.6118,-1.4325 l -1.0898,0.0292 c -0.0573,-0.003 0.1266,0.0374 0.0288,0.0123 -0.0564,-0.0145 0.4306,0.1949 0.2883,0.1164 -0.0746,-0.0412 0.3615,0.2763 0.2627,0.1874 -0.1017,-0.0917 0.3973,0.5552 0.3053,0.3867 -0.0929,-0.1702 0.1935,0.7952 0.1761,0.5871 -0.0169,-0.2028 -0.104,0.7032 -0.0574,0.5484 0.0868,-0.2881 -0.3936,0.6422 -0.3044,0.5437 0.0784,-0.0868 -0.2108,0.1865 -0.1729,0.1584 0.0719,-0.0534 4.8561,-1.5532 10.2412,-3.6573 6.3985,-2.5001 13.9147,-5.7522 19.8779,-9.4044 4.2327,-2.593 7.2841,-5.2461 9.7909,-6.7487 2.3246,-1.3935 4.387,-2.2677 5.9285,-4.1278 1.1665,-1.4078 2.6136,-3.427 2.0589,-5.8211 -0.378,-1.632 -1.2268,-3.0764 -2.0671,-4.3893 -0.738,-1.1534 -1.5902,-2.0945 -2.4808,-3.2368 -3.3977,-4.3579 -8.0464,-10.7384 -12.7693,-17.6249 -3.3215,-4.8431 -6.7224,-9.3431 -9.8791,-12.9799 -3.0293,-3.4899 -5.5985,-6.1135 -8.0117,-7.1547 -0.796,-0.343 -1.9388,-0.1936 -2.5767,0.2918 -0.5999,0.4563 -0.9175,0.9727 -1.285,1.4905 -0.8991,1.2669 -1.6722,2.6863 -2.8934,3.5481 -1.1163,0.7873 -2.6018,1.5159 -4.3272,2.3674 -3.6046,1.7782 -8.0583,3.5738 -12.1078,5.6615 -4.2859,2.21 -8.7636,3.852 -12.4499,5.5547 -3.5387,1.6345 -6.7877,3.3372 -6.9733,6.4976 -0.1309,2.2269 1.4519,3.8506 3.1321,5.7589 1.801,2.0457 4.2455,4.4991 7.0337,7.7655 5.0547,5.9227 10.7754,13.2503 15.4127,19.2618 2.7245,3.5318 5.0573,6.5531 6.9071,9.2011 1.7763,2.5428 3.0876,4.723 3.8407,6.6271"
         style="fill:#000000;fill-opacity:1;fill-rule:nonzero;stroke:none"
         id="path240" /><path
         d="m 540.2331,463.1125 c -0.1473,0.8291 0.4054,1.6207 1.2346,1.7681 0.8291,0.1473 1.6207,-0.4054 1.7681,-1.2346 0.1841,-1.0363 0.1394,-2.4713 0.0171,-3.8039 -0.0527,-0.5747 -0.1085,-1.1188 -0.6457,-1.7067 -0.2963,-0.3243 -0.9128,-0.6606 -1.5509,-0.5626 -0.6188,0.095 -0.9856,0.4622 -1.1998,0.7521 -1.291,1.7473 -0.9758,3.9989 -1.1519,6.0714 -0.0619,0.7273 -0.2571,1.571 -0.1082,2.5993 0.299,2.0664 2.1763,3.0217 3.7472,3.587 3.0783,1.108 6.5252,0.4143 9.9345,2.4096 0.7269,0.4253 1.6609,0.181 2.0863,-0.5459 0.4253,-0.7268 0.1809,-1.6608 -0.5459,-2.0862 -4.329,-2.5335 -8.5449,-1.9641 -10.4421,-2.6469 -1.1588,-0.4171 -1.7385,-0.9934 -1.7618,-1.1545 -0.0494,-0.341 0.0526,-1.0091 0.1287,-1.9042 0.1802,-2.1216 0.5283,-4.4664 0.5659,-4.5173 0.0395,-0.0534 -0.3436,0.3063 -0.2243,0.2191 0.1115,-0.0815 -0.6787,0.2596 -0.475,0.2137 0.1827,-0.0411 -0.7727,-0.0397 -0.5824,0.002 0.1642,0.0358 -0.5329,-0.2415 -0.4204,-0.1708 0.1873,0.1175 -0.4005,-0.4083 -0.3432,-0.3242 0.0751,0.1101 -0.08,-0.1525 -0.0772,-0.1425 l 0.0293,0.1866 c 0.1016,1.1063 0.0819,2.627 0.0171,2.9916"
         style="fill:#ed3624;fill-opacity:1;fill-rule:nonzero;stroke:none"
         id="path242" /><path
         d="m 379.4741,354.6645 c 0.6244,0.565 1.5887,0.5169 2.1537,-0.1076 0.5651,-0.6244 0.5169,-1.5887 -0.1076,-2.1537 -2.6115,-2.363 -4.2569,-2.5794 -5.4546,-5.0627 -0.3659,-0.7585 -1.2774,-1.0768 -2.0359,-0.711 -0.7585,0.3659 -1.0768,1.2774 -0.7109,2.0359 0.8327,1.7265 1.9152,2.8503 2.989,3.6497 1.0449,0.778 2.0624,1.3506 3.1663,2.3494"
         style="fill:#000000;fill-opacity:1;fill-rule:nonzero;stroke:none"
         id="path244" /><path
         d="m 301.7596,485.9815 c -0.1628,-0.8263 -0.9645,-1.3642 -1.7908,-1.2014 -0.8262,0.1627 -1.3641,0.9645 -1.2014,1.7907 0.4121,2.0923 1.9729,3.8263 3.9557,5.8725 2.0795,2.1461 4.747,4.6291 7.7465,7.8002 2.3327,2.4659 4.7278,5.5401 7.8377,9.3235 l 14.1024,17.0736 6.6658,8.0226 8.6632,10.4932 c 3.589,4.4006 6.3869,7.9236 8.6341,10.8737 2.1475,2.8194 3.8083,5.1397 5.2353,7.2689 1.898,2.8314 3.3515,5.3073 5.5069,7.3967 1.2237,1.1871 2.5961,2.0124 3.6512,3.279 1.1373,1.3654 1.9618,3.366 2.9881,5.1559 3.2821,5.7234 8.8028,11.3372 15.3481,17.8997 3.0548,3.0633 5.895,5.4295 7.5803,7.4472 0.9237,1.1062 1.7761,2.1747 2.6766,3.1679 0.7048,0.7775 1.4022,1.2503 1.4317,1.2885 0.0536,0.0697 -0.2109,-0.437 -0.1634,-0.3037 0.046,0.1294 -0.0658,-0.6041 -0.0701,-0.4452 -0.008,0.297 0.3394,-0.8255 0.2343,-0.6867 -0.0832,0.1098 0.2067,-0.197 0.1773,-0.1767 -0.0201,0.0138 -1.1182,0.3338 -2.581,0.3034 -1.7467,-0.0356 -3.9223,-0.3523 -6.378,-0.8752 -2.623,-0.5585 -5.4729,-1.5516 -7.973,-2.2322 -1.1644,-0.317 -2.1684,-0.5614 -2.9765,-0.6988 -0.3882,-0.066 -0.7219,-0.114 -1.0947,-0.1053 -0.1943,0.005 -0.4165,0.004 -0.7692,0.1532 -0.4001,0.1698 -1.0533,0.8991 -0.9884,1.626 0.0942,1.0542 0.6667,1.2993 1.017,1.5497 1.0293,0.7357 2.446,1.2837 3.692,1.9503 2.8187,1.5085 5.9166,3.192 9.1084,4.7645 l 4.8212,2.277 2.7898,1.378 c 0.9004,0.419 1.9204,0.9369 3.1811,0.4169 0.898,-0.3706 1.0832,-1.115 1.1713,-1.5589 0.2457,-1.2392 -0.0126,-2.4677 -0.0836,-3.4744 -0.3385,-4.7952 0.7145,-10.9414 3.8069,-14.7324 0.5323,-0.6525 0.4348,-1.6131 -0.2177,-2.1454 -0.6526,-0.5323 -1.6131,-0.4348 -2.1454,0.2177 -3.8396,4.7069 -4.8668,11.479 -4.4859,16.8748 l 0.1549,2.1243 -0.0206,0.5421 c -0.002,0.009 0.1334,-0.2753 0.0667,-0.1556 -0.0375,0.0673 0.2853,-0.3412 0.1906,-0.2479 -0.099,0.0975 0.562,-0.3304 0.3996,-0.2634 -0.1586,0.0654 0.2007,-0.026 0.0677,-0.0564 -0.5797,-0.1326 -1.9578,-0.9573 -3.6332,-1.7046 l -4.7157,-2.2275 c -3.1231,-1.5386 -6.1907,-3.2049 -9.0173,-4.7177 l -2.6085,-1.3106 -0.7489,-0.4318 c -0.0547,-0.0391 0.0262,0.046 -0.0202,-0.006 -0.0289,-0.0327 0.1802,0.2865 0.1275,0.1874 -0.0571,-0.1074 0.1588,0.6905 0.1399,0.479 -0.014,-0.1562 -0.0983,0.6993 -0.0479,0.5188 0.049,-0.1757 -0.333,0.6106 -0.2333,0.4763 0.1866,-0.2511 -0.69,0.51 -0.5428,0.4426 0.1266,-0.0579 -0.3357,0.1011 -0.2753,0.0895 0.1769,-0.0339 -0.0972,0.009 0.0503,0.0256 0.5505,0.0605 1.672,0.3138 3.0392,0.686 2.3605,0.6426 5.2664,1.6607 8.1389,2.2724 2.5757,0.5485 4.9119,0.8998 6.9504,0.9414 1.3477,0.028 2.4982,-0.0894 3.4378,-0.3966 0.4638,-0.1517 0.9222,-0.3238 1.3571,-0.813 0.4752,-0.5345 0.5532,-1.785 0.0877,-2.3901 -0.6214,-0.8076 -1.2485,-1.1012 -1.5894,-1.4772 -0.8172,-0.9014 -1.6501,-1.9427 -2.5953,-3.0745 -1.9615,-2.3484 -4.809,-4.6851 -7.7616,-7.6458 -6.5164,-6.5336 -11.868,-12.0425 -14.8618,-17.2632 -0.8924,-1.5563 -1.753,-3.7448 -3.2905,-5.5908 -1.4079,-1.69 -2.9766,-2.6484 -3.8713,-3.5164 -1.7969,-1.7419 -3.1613,-4.0181 -5.0967,-6.9054 -1.9602,-2.9248 -4.3581,-6.2061 -7.767,-10.5524 l -6.2724,-7.8196 -8.6834,-10.5177 -6.662,-8.0182 -14.0934,-17.0626 c -3.0882,-3.757 -5.5071,-6.8707 -7.9781,-9.4828 -3.0678,-3.2432 -5.771,-5.7618 -7.7719,-7.8267 -1.8718,-1.9316 -2.9755,-3.4351 -3.1536,-4.3395"
         style="fill:#ed3624;fill-opacity:1;fill-rule:nonzero;stroke:none"
         id="path246" /><path
         d="m 145.1129,508.6722 c 0.712,0.4497 1.6537,0.237 2.1034,-0.475 0.4497,-0.712 0.2371,-1.6538 -0.4749,-2.1035 -1.6399,-1.0356 -2.4569,-2.0021 -3.7671,-3.6503 -0.524,-0.6593 -1.4832,-0.7689 -2.1425,-0.2449 -0.6592,0.5241 -0.7688,1.4833 -0.2448,2.1425 1.3473,1.695 2.5337,3.073 4.5259,4.3312"
         style="fill:#000000;fill-opacity:1;fill-rule:nonzero;stroke:none"
         id="path248" /><path
         d="m 238.3818,681.3609 c -0.366,0.7584 -0.0478,1.67 0.7107,2.0359 0.7584,0.366 1.67,0.0478 2.0359,-0.7107 0.8031,-1.6645 0.1171,-3.2042 -0.4288,-4.9064 -0.8393,-2.6175 -2.0084,-5.4962 -2.1346,-7.3286 -0.0544,-0.7897 0.0962,-0.9949 0.134,-1.0202 0.0898,-0.0602 0.8329,-0.2252 2.3739,0.2273 0.8081,0.2373 1.6554,-0.2254 1.8927,-1.0335 0.2372,-0.808 -0.2255,-1.6553 -1.0335,-1.8926 -2.576,-0.7564 -4.9952,-0.4632 -5.9476,1.2843 -1.3557,2.4873 -0.0159,5.3666 0.9295,8.1092 0.4677,1.3567 0.932,2.643 1.2118,3.6977 l 0.2412,1.2423 c 0.0214,0.2761 0.0609,0.1996 0.0148,0.2953"
         style="fill:#ed3624;fill-opacity:1;fill-rule:nonzero;stroke:none"
         id="path250" /><path
         d="m 362.9096,335.5857 c 0.2122,0.815 1.0449,1.3037 1.8599,1.0915 0.8149,-0.2122 1.3036,-1.0449 1.0914,-1.8599 -0.2044,-0.7852 -0.407,-0.7272 -0.5168,-0.8305 -0.6857,-0.6452 -1.3354,-1.2772 -2.5442,-1.6313 -0.8081,-0.2368 -1.6552,0.2265 -1.892,1.0346 -0.2367,0.8082 0.2265,1.6553 1.0347,1.892 0.1558,0.0457 -0.1376,-0.0517 -0.1052,-0.0347 l 0.9378,0.5998 0.4221,0.3127 0.0515,0.0426 c 0.0113,0.0111 -0.1289,-0.1522 -0.082,-0.0927 0.0262,0.0332 -0.1443,-0.2213 -0.1021,-0.1496 0.0457,0.0775 -0.2041,-0.563 -0.1551,-0.3745"
         style="fill:#000000;fill-opacity:1;fill-rule:nonzero;stroke:none"
         id="path252" /><path
         d="m 533.3841,482.7619 c 0.6456,-0.5408 0.7305,-1.5025 0.1897,-2.1481 -0.5408,-0.6456 -1.5025,-0.7305 -2.148,-0.1897 -0.0929,0.0778 0.3997,-0.128 0.3333,-0.1284 -0.0316,-1e-4 -1.2748,-0.6986 -2.6275,-2.117 -2.171,-2.2764 -4.582,-5.5524 -6.6662,-8.3744 l -2.6281,-3.4686 c -0.3497,-0.4284 -0.6484,-0.7787 -0.9852,-1.0769 -0.1716,-0.1519 -0.3446,-0.3209 -0.7454,-0.4662 -0.461,-0.1671 -1.6615,0.0927 -2.0123,0.7696 -0.3876,0.7476 -0.0956,1.6679 0.6521,2.0554 0.7477,0.3876 1.6679,0.0956 2.0554,-0.6521 0.1011,-0.1949 -0.8385,0.7402 -0.566,0.5858 0.2681,-0.1521 -0.9984,0.1745 -0.7813,0.1858 0.2001,0.0104 -0.5218,-0.1309 -0.4288,-0.0933 0.1614,0.0652 -0.2164,-0.1193 -0.209,-0.1134 0.6688,0.5277 3.6445,4.8451 6.767,8.8212 1.5551,1.9802 3.1119,3.8363 4.6303,5.1884 0.7371,0.6564 1.4556,1.2025 2.2738,1.5363 0.8275,0.3375 2.04,0.4028 2.8962,-0.3144"
         style="fill:#ed3624;fill-opacity:1;fill-rule:nonzero;stroke:none"
         id="path254" /><path
         d="m 214.6724,691.7462 c -0.7181,0.4398 -0.9437,1.3786 -0.5039,2.0967 0.4399,0.7181 1.3786,0.9437 2.0968,0.5039 1.1974,-0.7335 2.1769,-2.0053 3.4106,-3.5805 3.9533,-5.0476 9.1146,-12.5425 12.5146,-13.6997 0.7972,-0.2714 1.2236,-1.1376 0.9522,-1.9349 -0.2714,-0.7972 -1.1376,-1.2235 -1.9348,-0.9521 -3.6377,1.2381 -6.7345,5.293 -9.7834,9.2479 -3.011,3.9056 -5.7576,7.7096 -6.7521,8.3187"
         style="fill:#ed3624;fill-opacity:1;fill-rule:nonzero;stroke:none"
         id="path256" /><path
         d="m 305.1618,485.6668 c -0.0529,-0.8405 -0.777,-1.479 -1.6175,-1.4262 -0.8405,0.0528 -1.479,0.777 -1.4262,1.6175 0.0504,0.8018 -0.0391,1.2778 -0.0662,1.346 -10e-4,0.002 0.1946,-0.2362 0.1082,-0.1471 -0.0828,0.0853 0.5257,-0.2825 0.3722,-0.2309 -0.1332,0.0448 0.4617,-0.0402 0.3633,-0.0476 -0.156,-0.0118 0.2061,0.0503 0.1914,0.0417 -0.1193,-0.0694 -0.554,-0.5061 -0.8828,-1.0724 -0.2983,-0.5139 -0.4196,-1.3439 -0.316,-1.9991 0.0315,-0.1995 0.1813,-0.4405 0.3831,-0.6009 l 0.25,-0.1439 c 0.0428,-0.0139 -0.1936,-0.0393 -0.0851,-0.0163 0.2289,0.0482 -0.5522,-0.3113 -0.4712,-0.2359 0.1144,0.1065 -0.0683,-0.0876 -0.0177,0.0362 0.193,0.4728 0.3602,1.5177 0.4412,2.3686 0.0799,0.8397 -0.2748,1.6555 -0.7921,2.135 -0.3566,0.3303 -0.8429,0.5786 -1.2405,0.6753 l -0.4086,0.0454 c -0.052,-0.005 0.2282,0.1677 0.1154,0.0773 -0.1505,-0.1207 0.2294,0.3342 0.2184,0.2958 -0.0623,-0.2158 1.0491,-2.9889 2.5295,-3.4072 0.8104,-0.229 1.2817,-1.0716 1.0527,-1.882 -0.229,-0.8104 -1.0716,-1.2818 -1.882,-1.0528 -1.9646,0.5552 -3.3017,2.0973 -4.0648,3.639 -0.3756,0.759 -0.6226,1.5361 -0.6783,2.3238 -0.056,0.7917 0.068,1.782 0.9163,2.4622 1.8082,1.4508 3.9948,0.4681 5.5147,-0.9399 1.2113,-1.1227 1.9285,-2.8406 1.7552,-4.6608 -0.0696,-0.7321 -0.1754,-1.6066 -0.3973,-2.449 -0.2223,-0.8442 -0.3766,-2.0811 -1.9613,-2.415 -2.0741,-0.4381 -3.8541,1.1435 -4.1899,3.2692 -0.205,1.2969 -0.0442,2.7399 0.6909,4.0061 0.6755,1.1636 1.3866,2.3914 3.0736,2.5385 0.9302,0.0811 1.9312,-0.6973 2.2449,-1.4854 0.3067,-0.7705 0.3426,-1.6136 0.2765,-2.6652"
         style="fill:#ed3624;fill-opacity:1;fill-rule:nonzero;stroke:none"
         id="path258" /><path
         d="m 182.2777,552.8524 c 0.1498,0.8287 0.9431,1.379 1.7718,1.2292 0.8287,-0.1498 1.379,-0.9431 1.2292,-1.7718 -0.0528,-0.2921 0.0231,-2.6437 -2.6557,-5.4117 -0.5856,-0.6051 -1.551,-0.6209 -2.1561,-0.0353 -0.6052,0.5857 -0.621,1.551 -0.0353,2.1562 1.1855,1.225 1.591,1.9817 1.7099,2.3844 0.1015,0.3441 -0.0126,0.6259 0.1362,1.449"
         style="fill:#000000;fill-opacity:1;fill-rule:nonzero;stroke:none"
         id="path260" /><path
         d="m 172.6266,536.8396 c -0.5766,0.6137 -0.5466,1.5787 0.0671,2.1554 0.6137,0.5767 1.5787,0.5467 2.1554,-0.0671 0.4892,-0.5206 0.4261,-0.9526 0.4122,-1.1574 -0.0678,-1.0003 -0.2511,-0.7986 -0.3815,-1.018 -0.4179,-0.7029 -1.0107,-1.7018 -2.0905,-2.4006 -0.707,-0.4575 -1.6511,-0.2553 -2.1086,0.4517 -0.4576,0.707 -0.2554,1.6511 0.4516,2.1086 0.0974,0.063 0.5037,0.4878 0.8029,0.9075 l 0.3445,0.5274 0.0467,0.0838 c 0.006,0.0135 -0.0824,-0.2441 -0.0523,-0.1427 0.0174,0.0587 -0.0671,-0.482 -0.0555,-0.3114 0.006,0.0943 0.0631,-0.58 0.0266,-0.3998 -0.0395,0.1949 0.63,-1.0019 0.3814,-0.7374"
         style="fill:#000000;fill-opacity:1;fill-rule:nonzero;stroke:none"
         id="path262" /><path
         d="m 308.6594,439.0602 c 0.5774,-0.613 0.5485,-1.5781 -0.0645,-2.1555 -0.6131,-0.5773 -1.5781,-0.5485 -2.1555,0.0646 -0.0277,0.0294 0.1267,0.0202 -0.2651,-0.1005 -1.6394,-0.5049 -4.9219,-3.7648 -7.3758,-7.9953 -1.8677,-3.2198 -3.129,-6.802 -3.3222,-9.65 -0.087,-1.2835 -0.2569,-2.1817 -0.1709,-2.4902 0.0468,-0.1678 0.3921,-0.5427 1.1679,-0.8478 0.8247,-0.3243 1.9023,-0.5121 2.871,-0.568 1.1208,-0.0643 2.2233,0.1151 3.2561,0.6059 0.8959,0.4256 1.8749,1.5303 2.8843,2.7537 2.5629,3.107 3.5731,6.0976 4.4652,9.6715 0.5168,2.0704 1.1589,4.0643 1.5011,5.6098 l 0.2372,1.4241 c -0.0143,0.1524 0.3063,-0.5513 0.208,-0.4505 -0.1259,0.1292 0.1349,-0.0832 -0.014,-0.0564 l -0.7868,0.004 c -1.3754,-0.1539 -3.195,-0.8891 -4.7228,-1.8928 -0.7865,-0.517 -1.5239,-1.1014 -2.2193,-1.8771 -0.8835,-0.985 -1.7195,-2.0376 -2.1378,-2.992 -0.3524,-0.8036 -0.461,-1.683 -0.3906,-2.1743 0.0115,-0.0802 -0.1523,0.258 -0.1319,0.2426 0.1315,-0.0992 1.9992,-0.331 4.3209,-0.0565 2.4275,0.2869 5.2075,0.8285 7.7833,1.2235 0.8324,0.1276 1.6107,-0.4437 1.7383,-1.2761 0.1277,-0.8324 -0.4437,-1.6107 -1.2761,-1.7383 -2.8631,-0.4391 -6.1051,-1.0964 -8.9614,-1.3497 -1.3896,-0.1233 -2.6574,-0.1635 -3.7985,0.0713 -1.1356,0.2338 -2.4911,1.0376 -2.6935,2.4508 -0.1737,1.2126 0.0516,2.543 0.6165,3.8312 0.6519,1.4874 1.6957,2.7281 2.6604,3.8036 0.9027,1.007 1.87,1.7685 2.8149,2.3896 1.8702,1.2286 4.0062,2.1452 6.0584,2.3749 0.7472,0.0836 1.4881,0.0745 2.2218,-0.1751 0.7546,-0.2568 1.6478,-1.0176 1.7465,-2.0671 0.0824,-0.8758 -0.1254,-1.5985 -0.2959,-2.3687 -0.3881,-1.753 -1.0326,-3.7375 -1.5199,-5.6893 -0.9316,-3.7323 -2.1452,-7.326 -5.0716,-10.8736 -1.0348,-1.2543 -2.185,-2.7396 -3.9279,-3.5676 -1.533,-0.7285 -3.1717,-0.9858 -4.7399,-0.8959 -1.2213,0.0704 -2.5638,0.2837 -3.8121,0.7746 -1.2513,0.4921 -2.5645,1.3421 -2.9895,2.8672 -0.3936,1.4125 6e-4,2.5511 0.066,3.5152 0.2381,3.5113 1.6652,7.4196 3.7268,10.9738 1.7937,3.0923 3.9034,5.7329 6.01,7.5166 1.0181,0.8619 2.026,1.5304 3.1061,1.8631 1.0798,0.3326 2.5001,0.214 3.3828,-0.7232"
         style="fill:#ed3624;fill-opacity:1;fill-rule:nonzero;stroke:none"
         id="path264" /><path
         d="m 213.2015,382.4331 c -0.7321,-0.4162 -1.663,-0.1602 -2.0792,0.5719 -0.4162,0.7321 -0.1602,1.663 0.5719,2.0792 0.7475,0.425 1.5974,0.9583 2.7311,0.2932 0.8834,-0.5183 0.9847,-1.4844 0.9339,-2.0461 -0.1443,-1.5948 -1.0973,-3.1759 -2.2405,-5.0038 -1.9218,-3.073 -4.3886,-6.258 -6.0796,-8.7098 -0.7687,-1.1145 -1.4048,-1.9616 -1.7934,-2.6497 l -0.6256,-0.9476 -0.1268,-0.1973 c -0.007,-0.0133 0.0641,0.299 0.0438,0.1649 -0.0311,-0.2046 -0.1631,0.8551 -0.0803,0.6551 0.0775,-0.1871 -0.3446,0.4658 -0.2643,0.39 0.1343,-0.1268 -0.1688,0.1171 -0.1131,0.096 0.8781,-0.3317 4.3683,-0.4503 7.7125,-0.7598 1.6661,-0.1541 3.2721,-0.3559 4.6514,-0.7793 1.3521,-0.4149 2.9236,-1.1942 3.0629,-2.9254 0.0676,-0.8394 -0.5581,-1.5746 -1.3975,-1.6422 -0.8395,-0.0676 -1.5747,0.5581 -1.6423,1.3976 -0.006,0.0802 0.0871,-0.226 0.0669,-0.198 -0.002,0.004 -0.847,0.4852 -2.1712,0.7367 -2.1289,0.4043 -4.9326,0.5242 -7.3845,0.7086 -1.1926,0.0898 -2.2596,0.1839 -3.1611,0.3775 -0.4421,0.095 -0.8552,0.2004 -1.2941,0.4567 -0.467,0.2726 -1.1367,1.0457 -1.0005,1.9438 0.1925,1.2693 0.8334,1.6064 1.0683,2.0224 0.5312,0.9403 1.2048,1.8177 1.9385,2.8815 1.7593,2.551 4.194,5.7006 6.0043,8.5954 0.9287,1.4847 1.6217,2.9031 1.7673,3.5405 0.0273,0.1193 0.0418,-0.065 0.0268,0.0489 -0.007,0.0526 0.1062,-0.3318 0.0644,-0.2314 -0.0792,0.1898 0.7771,-0.7116 0.5259,-0.5755 -0.1829,0.0991 0.5899,-0.1396 0.4739,-0.135 -0.1521,0.006 0.1866,0.0192 0.1471,0.005 l -0.3369,-0.1644 z"
         style="fill:#000000;fill-opacity:1;fill-rule:nonzero;stroke:none"
         id="path266" /><path
         d="m 190.723,557.9939 c 0,-0.8421 -0.6827,-1.5248 -1.5248,-1.5248 -0.8422,0 -1.5249,0.6827 -1.5249,1.5248 0,0.8422 0.6827,1.5249 1.5249,1.5249 0.8421,0 1.5248,-0.6827 1.5248,-1.5249"
         style="fill:#000000;fill-opacity:1;fill-rule:nonzero;stroke:none"
         id="path268" /><path
         d="m 443.9637,632.7208 c -0.8379,0.0837 -1.4493,0.831 -1.3656,1.6689 0.0838,0.838 0.831,1.4494 1.669,1.3656 4.0405,-0.4039 7.8447,-4.7409 12.3149,-9.2242 4.5422,-4.5556 9.2142,-9.3898 13.3269,-11.6608 0.7372,-0.4071 1.0048,-1.3348 0.5977,-2.072 -0.4071,-0.7372 -1.3347,-1.0048 -2.072,-0.5977 -4.7687,2.6334 -9.4747,7.6264 -14.0122,12.1772 -4.4292,4.4422 -8.5975,8.1569 -10.4587,8.343"
         style="fill:#ed3624;fill-opacity:1;fill-rule:nonzero;stroke:none"
         id="path270" /><path
         d="m 462.451,642.7281 c -0.308,0.7838 0.0777,1.6689 0.8615,1.9769 0.7838,0.3081 1.6688,-0.0776 1.9769,-0.8614 0.5081,-1.2929 -0.0441,-1.7775 -0.391,-2.5414 -1.142,-2.5146 -3.7426,-6.3965 -7.4082,-10.8046 -2.9516,-3.5497 -6.577,-6.9006 -9.5778,-9.5678 -1.3513,-1.2015 -2.5123,-2.2767 -3.7289,-3.0377 -0.3981,-0.2488 -0.7643,-0.5908 -1.2353,-0.9555 -0.4927,-0.3815 -1.2643,-0.8821 -2.2637,-0.768 -1.1897,0.1359 -1.4368,0.873 -1.6852,1.3048 l -0.6416,1.2883 c -0.3648,0.759 -0.0451,1.6701 0.7139,2.0348 0.7591,0.3648 1.6701,0.0451 2.0348,-0.7139 l 0.5363,-1.0884 0.0629,-0.1069 c 0.0247,-0.0265 -0.2755,0.2027 -0.175,0.1401 0.1097,-0.0685 -0.7187,0.1962 -0.5001,0.1712 0.0932,-0.0107 -0.2029,-0.0219 -0.1979,-0.0197 0.094,0.0412 0.7187,0.6643 1.7341,1.299 0.8635,0.5401 1.9662,1.5278 3.3195,2.7311 2.9527,2.6246 6.4837,5.9007 9.2591,9.2385 2.3753,2.8564 4.2891,5.5251 5.6057,7.6454 0.6219,1.0017 1.0895,1.8512 1.3707,2.4703 l 0.2412,0.6223 0.007,0.008 c 0.002,0.0299 0.0108,-0.2218 0.003,-0.1497 -0.008,0.0779 0.1301,-0.4484 0.0781,-0.3161"
         style="fill:#ed3624;fill-opacity:1;fill-rule:nonzero;stroke:none"
         id="path272" /><path
         d="m 96.64425,630.356 c -0.20195,0.8176 0.2971,1.644 1.11466,1.846 0.81757,0.202 1.64405,-0.2971 1.84601,-1.1147 0.59238,-2.3982 1.41058,-8.1106 3.00008,-11.8006 0.3642,-0.8456 0.7559,-1.4943 1.0567,-1.8078 0.3524,-0.3671 -0.0546,-0.4009 0.3879,0.002 0.6313,0.5748 1.6452,2.3222 2.7069,5.3324 0.2801,0.7942 1.151,1.211 1.9451,0.9309 0.7942,-0.2801 1.211,-1.151 0.9309,-1.9452 -1.4981,-4.2477 -2.7448,-6.8476 -5.0761,-7.454 -1.7768,-0.4623 -3.2158,0.9156 -4.0162,2.2659 -2.5043,4.2249 -3.31121,11.3779 -3.89595,13.7451"
         style="fill:#ed3624;fill-opacity:1;fill-rule:nonzero;stroke:none"
         id="path274" /><path
         d="m 298.917,491.6839 c 0.2809,-0.7939 -0.135,-1.6652 -0.9289,-1.9461 -0.7939,-0.2809 -1.6652,0.1349 -1.9461,0.9288 -0.7099,2.0063 -2.1454,3.7709 -4.2255,5.5871 -2.1699,1.8947 -5.0135,3.8433 -8.3152,6.2058 -5.804,4.1531 -12.2809,9.5592 -19.4911,15.1562 -7.318,5.6806 -15.2504,11.4692 -23.7621,16.2851 -10.7265,6.069 -21.1448,11.5426 -30.9199,16.9059 -9.6536,5.2968 -18.6634,10.4744 -26.6583,16.0415 -8.2257,5.7281 -16.2496,9.7233 -22.3258,13.5089 -3.2255,2.0099 -6.0618,3.5718 -8.6561,5.4784 -1.7222,1.2651 -3.5042,2.6969 -5.1909,4.0187 l -6.1694,4.7876 c -0.8174,0.6505 -1.7178,1.343 -2.512,2.1144 -1.0686,1.038 -1.7527,2.1626 -1.9512,3.327 -0.0761,0.4461 -0.1854,1.0257 0.2349,1.7379 0.4491,0.761 1.4529,1.0127 2.0882,0.9422 2.4793,-0.2743 4.6757,-2.2668 6.6333,-3.1741 1.3021,-0.6037 2.4157,-0.6827 2.4444,-0.674 0.1848,0.0557 -0.7062,-0.568 -0.5603,-0.3837 0.1235,0.1561 -0.2268,-0.5212 -0.2035,-0.4167 0.0349,0.1571 -0.0111,-0.175 -0.0237,-0.1112 -0.0567,0.2891 -0.3937,1.0568 -0.9412,1.9003 -1.4204,2.1888 -3.7497,4.7056 -5.2452,5.7397 -0.1241,0.0859 0.008,0.0478 -0.0835,0.0682 -0.0882,0.0196 0.6292,0.0947 0.449,0.0332 -0.1345,-0.0459 0.3729,0.2404 0.3089,0.1808 -0.0831,-0.0774 0.0763,0.0975 0.0453,0.0302 l -0.1527,-0.4657 c -0.7285,-2.8309 -1.151,-7.8806 -1.3392,-12.5712 -0.0922,-2.2993 -0.1189,-4.4173 -0.0754,-6.0466 l 0.1071,-1.835 0.0589,-0.3743 c 0.002,-0.009 -0.0754,0.1745 -0.0376,0.0936 0.0218,-0.0464 -0.1827,0.2861 -0.1187,0.1987 0.0692,-0.0945 -0.549,0.4643 -0.362,0.3418 0.7045,-0.4613 0.9017,-1.4065 0.4403,-2.111 -0.4613,-0.7045 -1.4065,-0.9017 -2.111,-0.4403 -0.7746,0.5072 -0.6961,0.8921 -0.764,1.1556 -0.2438,0.9452 -0.2627,2.1826 -0.2791,3.885 -0.0538,5.569 0.3009,13.6979 1.5272,18.4637 0.2098,0.8153 0.4471,1.6595 1.3814,2.2045 0.9757,0.5692 2.0784,0.1543 2.7394,-0.3026 2.0625,-1.4262 4.4188,-4.0452 6.069,-6.5881 0.5853,-0.9016 1.0386,-1.751 1.2827,-2.5932 0.1218,-0.4199 0.2165,-0.8597 0.1222,-1.4104 -0.1004,-0.5862 -0.6469,-1.3519 -1.3552,-1.5655 -1.4609,-0.439 -2.926,0.0484 -4.6061,0.8274 -2.3797,1.1029 -4.9098,2.8239 -5.6867,2.9098 -0.004,4e-4 0.1037,0.004 0.0595,9e-4 -0.0912,-0.007 0.6617,0.3013 0.4679,0.1715 -0.1495,-0.1002 0.4361,0.5247 0.358,0.386 -0.11,-0.1955 0.1235,0.4315 0.1214,0.3826 l 0.0123,-0.0773 c 0.032,-0.1873 0.4171,-1.0181 1.0699,-1.6522 0.6253,-0.6073 1.4578,-1.2565 2.2861,-1.9157 l 6.1516,-4.7735 c 1.7017,-1.3336 3.4641,-2.7484 5.1154,-3.9614 2.3928,-1.7585 5.1735,-3.2978 8.4632,-5.3476 5.898,-3.6747 14.0284,-7.7261 22.4557,-13.5946 7.848,-5.4649 16.7687,-10.5956 26.3826,-15.8705 9.7457,-5.3473 20.1795,-10.8288 30.9547,-16.9254 8.7093,-4.9276 16.7552,-10.8053 24.1303,-16.5303 7.2541,-5.6311 13.7244,-11.0268 19.3957,-15.0851 6.4679,-4.6279 11.7616,-7.9439 13.6411,-13.2557"
         style="fill:#ed3624;fill-opacity:1;fill-rule:nonzero;stroke:none"
         id="path276" /><path
         d="m 411.8022,392.6864 c 0.6321,0.5564 1.5957,0.4951 2.1521,-0.1371 0.5564,-0.6321 0.4951,-1.5956 -0.137,-2.152 -0.0479,-0.0422 -0.3715,-0.4298 -1.8603,-1.8252 -0.6145,-0.5759 -1.5795,-0.5446 -2.1553,0.0699 -0.5759,0.6144 -0.5447,1.5794 0.0698,2.1553 z"
         style="fill:#000000;fill-opacity:1;fill-rule:nonzero;stroke:none"
         id="path278" /><path
         d="m 221.8133,719.8066 c 0.836,-0.1016 1.4313,-0.8617 1.3297,-1.6977 -0.1017,-0.8359 -0.8617,-1.4313 -1.6977,-1.3296 -0.0184,0.002 -1.303,-0.8129 -1.6883,-1.6517 l -0.1419,-0.4741 c 0.005,-0.0462 -0.2327,0.408 -0.1401,0.2839 0.1707,-0.2285 -0.7754,0.5202 -0.5905,0.4495 0.1615,-0.0617 -0.4378,0.0799 -0.3594,0.0767 0.1255,-0.005 -0.139,-0.009 -0.1044,-4e-4 0.5084,0.1277 2.1761,1.0565 3.2895,1.9076 0.8616,0.6585 1.4851,1.632 1.8013,2.3829 l 0.298,0.7881 0.0148,0.0485 c 0.002,0.0565 0.1682,-0.5779 0.0836,-0.3873 -0.0953,0.2152 0.6016,-0.6869 0.4279,-0.5504 -0.1632,0.1283 0.5924,-0.2816 0.4593,-0.2409 -0.238,0.0729 0.5435,-0.0478 0.461,-0.0545 -0.2965,-0.0239 -2.1994,-1.181 -2.8889,-1.8904 -0.0124,-0.0128 0.0473,0.0693 0.0215,0.031 -0.0285,-0.0423 0.1538,0.3678 0.1139,0.2426 -0.0401,-0.1258 0.0301,0.6948 0.0499,0.4979 0.019,-0.1882 -0.2662,0.6844 -0.1757,0.5327 0.0822,-0.1379 -0.3376,0.3737 -0.2572,0.3056 0.1377,-0.1166 -0.2733,0.1626 -0.2474,0.1532 l 3.1076,-0.1643 c 0.8415,-0.0348 1.4953,-0.7451 1.4605,-1.5865 -0.0348,-0.8415 -0.7452,-1.4953 -1.5866,-1.4605 -1.1115,0.046 -2.234,0.0169 -3.2162,0.1559 -0.4905,0.0695 -1.0661,0.0403 -1.7044,0.7897 -0.3542,0.4158 -0.4956,1.1583 -0.3498,1.6576 0.1363,0.4668 0.3733,0.7405 0.5973,0.9709 0.7317,0.7528 1.7159,1.4028 2.6767,1.9499 0.4715,0.2685 0.9164,0.4959 1.3555,0.6599 0.2196,0.082 0.4374,0.159 0.7583,0.191 0.3536,0.0353 1.2975,0.0101 1.7249,-0.9546 0.6029,-1.3596 -0.0513,-2.1024 -0.3739,-2.8686 -0.4889,-1.1611 -1.3518,-2.5461 -2.7599,-3.6224 -0.8731,-0.6673 -1.9018,-1.3247 -2.8792,-1.8261 -0.4791,-0.2458 -0.932,-0.4522 -1.4084,-0.5867 -0.241,-0.068 -0.4962,-0.128 -0.8382,-0.1197 -0.3669,0.009 -0.9815,0.1304 -1.4054,0.6981 -0.8632,1.1571 -0.493,2.3128 -0.0452,3.2874 0.8049,1.7522 2.3953,3.7015 4.8275,3.4058"
         style="fill:#ed3624;fill-opacity:1;fill-rule:nonzero;stroke:none"
         id="path280" /><path
         d="m 530.6666,499.5388 c 0.07,-0.8392 -0.5536,-1.5763 -1.3928,-1.6463 -0.8393,-0.07 -1.5763,0.5536 -1.6463,1.3928 -0.004,0.0454 0.0406,-0.109 0.0152,-0.0343 -0.0271,0.0795 0.4296,-0.5834 0.2573,-0.4057 -0.1622,0.1673 1.0224,-0.435 0.729,-0.3835 -0.2522,0.0442 0.8006,0.0979 0.6404,0.0448 -0.1315,-0.0436 0.3421,0.1786 0.281,0.137 -0.0957,-0.0651 0.1372,0.1186 0.1305,0.1107 l -0.2098,-0.4477 c -0.0546,-0.1676 -9e-4,-0.7039 0.1171,-0.9141 0.0936,-0.1667 -0.4231,0.3928 -0.3275,0.3383 0.1401,-0.08 -0.1328,0.0449 -0.0228,0.0446 0.4339,-10e-4 1.3541,0.3571 1.6016,0.5972 0.0697,0.0677 -0.0974,-0.1345 -0.0962,-0.1311 0.1029,0.2838 -0.403,2.5581 -0.9371,3.592 -0.3865,0.7483 -0.0932,1.6681 0.655,2.0546 0.7482,0.3865 1.6681,0.0932 2.0546,-0.655 0.4225,-0.8181 0.8639,-1.933 1.1244,-3.1418 0.262,-1.2159 0.5471,-2.7193 -0.6768,-3.9072 -0.7912,-0.7678 -1.7781,-1.1682 -2.7796,-1.3627 -1.001,-0.1944 -2.4469,-0.36 -3.2547,1.0778 -0.5673,1.0106 -0.7381,2.1854 -0.3573,3.3533 0.2301,0.705 0.4647,1.3264 1.1989,1.867 0.4155,0.3059 1.5138,0.5508 2.2032,-0.0424 0.6299,-0.542 0.6552,-1.089 0.6927,-1.5383"
         style="fill:#ed3624;fill-opacity:1;fill-rule:nonzero;stroke:none"
         id="path282" /><path
         d="m 521.3348,482.1886 c 0.4818,-0.6907 0.3123,-1.6412 -0.3785,-2.1229 -0.6907,-0.4817 -1.6412,-0.3123 -2.1229,0.3785 l -0.269,0.3801 -0.0339,0.0458 0.0244,-0.0296 c -0.0189,0.0221 0.2552,-0.241 0.1477,-0.1477 -0.0619,0.0536 0.7373,-0.3833 0.435,-0.2638 -0.364,0.144 2.2731,1.5994 1.9761,0.8535 -0.2405,-0.6038 0.0336,1.0504 0.0643,0.9254 0.0497,-0.2023 -0.1147,0.3128 -0.0976,0.2765 l 2.0645,-3.2292 c 2.1738,-3.3915 4.174,-7.5898 5.9578,-11.035 0.8557,-1.6527 1.6233,-3.0616 2.2405,-3.9554 l 0.5793,-0.7094 c 0.004,-0.003 -0.0907,0.0497 -0.0498,0.0289 0.0725,-0.037 -0.6716,0.094 -0.4475,0.0961 0.236,0.002 -0.8467,-0.3554 -0.6769,-0.2277 0.6732,0.5059 1.6291,0.3704 2.1351,-0.3028 0.506,-0.6732 0.3704,-1.6291 -0.3028,-2.1351 -0.8325,-0.6257 -2.0085,-0.2709 -2.5253,0.1294 -1.6874,1.3066 -2.7546,3.8882 -4.3376,6.9927 -1.6283,3.1934 -3.3747,6.718 -5.1403,9.4727 l -1.8879,2.9521 -0.2314,0.3742 -0.1581,0.2967 -0.099,0.3176 c -0.0474,0.2405 0.0555,1.6919 1.3526,1.815 0.967,0.0918 1.0205,-0.2631 1.1202,-0.3458 0.6619,-0.5486 0.4262,-0.494 0.661,-0.8308"
         style="fill:#ed3624;fill-opacity:1;fill-rule:nonzero;stroke:none"
         id="path284" /><path
         d="m 532.5819,496.3299 c -0.3056,-0.7847 -1.1895,-1.1731 -1.9743,-0.8675 -0.7847,0.3056 -1.1731,1.1895 -0.8675,1.9742 0.3361,0.8629 0.403,1.826 0.3501,1.9958 -0.0575,0.1845 0.3853,-0.5464 0.2788,-0.4474 -0.0868,0.0807 0.2415,-0.1567 0.2001,-0.1379 -0.1188,0.054 -0.7896,-0.006 -1.1899,-0.1355 -0.2474,-0.08 0.7527,0.6334 0.6184,0.4482 -0.1113,-0.1535 0.2041,0.4846 0.1813,0.3876 -0.0354,-0.1502 0.0159,0.2365 0.0184,0.2203 0.01,-0.0179 -0.2224,0.2247 -0.1358,0.1504 0.0976,-0.0837 -0.8355,0.2935 -0.5555,0.2488 0.179,-0.0284 -0.6434,-0.0435 -0.5004,-0.0128 0.2535,0.0545 -0.5631,-0.2775 -0.48,-0.2146 0.122,0.0924 -0.1194,-0.1134 -0.0986,-0.0841 l 0.4273,0.8673 c 0.0493,0.125 -0.0163,-0.1004 -0.0426,0.0266 l -0.1147,0.3922 c -0.0399,0.1216 -0.1518,0.1503 -0.1366,0.7488 0.007,0.2924 0.179,1.0778 0.9532,1.3992 1.2212,0.5069 1.4279,-0.1089 1.5822,-0.2223 0.3946,-0.29 0.6681,-0.6007 1.2617,-1.194 0.5956,-0.5953 0.5958,-1.5608 4e-4,-2.1564 -0.5953,-0.5956 -1.5608,-0.5958 -2.1564,-5e-4 l -0.9288,0.9066 c -5e-4,4e-4 0.1237,-0.0835 0.0689,-0.0484 -0.0292,0.0186 0.1916,-0.1025 0.1304,-0.0728 -0.0638,0.031 0.4155,-0.1339 0.2829,-0.1015 -0.1381,0.0338 0.842,0.0168 0.5871,-0.0237 -0.2602,-0.0413 1.0206,0.6018 0.7947,0.3897 -0.2143,-0.2012 0.4563,0.7948 0.395,0.6135 -0.0558,-0.1649 0.081,0.487 0.0756,0.3897 -0.01,-0.1715 -0.0279,0.3698 -0.018,0.314 0.0275,-0.1536 -0.0107,0.0583 0.029,-0.0631 0.1424,-0.4349 0.5135,-1.3009 0.0725,-2.4178 -0.1436,-0.3635 -0.3308,-0.7908 -0.5838,-1.2147 -0.1286,-0.2152 -0.2693,-0.434 -0.5003,-0.668 -0.2472,-0.2504 -0.7157,-0.7016 -1.5797,-0.5647 -1.3881,0.2216 -1.6003,1.162 -1.7783,1.8352 -0.0897,0.3395 -0.1449,0.7082 -0.0574,1.1664 0.0933,0.4887 0.5057,1.2161 1.2497,1.4566 0.6264,0.2026 1.3293,0.3165 2.0821,0.2887 0.7684,-0.0284 2.045,-0.1696 2.4788,-1.5628 0.4331,-1.3903 0.0712,-2.7479 -0.42,-4.0093"
         style="fill:#ed3624;fill-opacity:1;fill-rule:nonzero;stroke:none"
         id="path286" /><path
         d="m 133.8293,487.9817 c 0.0206,0.8419 0.7197,1.5077 1.5616,1.4872 0.8419,-0.0206 1.5077,-0.7197 1.4872,-1.5616 -0.1019,-4.1782 -2.7666,-8.6834 -3.2674,-13.0558 -0.5225,-4.5623 3.5739,-8.1067 9.3417,-10.3361 9.1136,-3.523 19.7982,-9.6308 31.6091,-14.5542 11.286,-4.7046 21.1598,-11.5714 29.9138,-17.1925 8.0019,-5.138 16.382,-11.5642 23.9388,-16.7372 3.7077,-2.5383 7.0359,-5.5228 9.3593,-9.0765 1.12,-1.7124 2.0055,-3.6952 2.3613,-5.884 0.2041,-1.2551 0.2516,-2.6196 -0.005,-4.0327 -0.2947,-1.6257 -0.9943,-3.1511 -1.862,-4.4479 -0.8418,-1.2583 -2.0216,-1.9074 -2.7585,-2.3532 -0.4635,-0.2803 -0.8514,-0.5348 -1.2943,-0.7378 -0.2293,-0.105 -0.4855,-0.2436 -0.9911,-0.2356 -0.5727,0.009 -1.4457,0.6549 -1.6056,1.2503 -0.3166,1.1799 0.2216,1.7976 0.5672,2.3659 l 1.0325,1.5282 c 1.7421,2.5889 4.9123,3.7898 8.1859,4.0138 3.3144,0.2268 6.8622,-0.4779 9.952,-1.9951 4.8706,-2.392 8.6579,-4.9651 13.1974,-7.1456 3.0375,-1.4587 6.5722,-3.4588 9.8959,-5.7725 2.2993,-1.6006 4.1953,-3.2033 6.2279,-4.7909 l 2.5119,-1.8922 c 3.9954,-3.0931 6.6596,-7.5731 9.3348,-10.2902 1.3264,-1.3468 3.365,-2.0708 5.4319,-3.4859 1.1225,-0.7685 1.9698,-1.6772 3.1003,-2.7688 l 5.7694,-5.4071 c 3.7711,-3.6025 7.241,-6.3164 11.0036,-8.8922 3.5277,-2.4147 7.0106,-4.998 10.0502,-7.4618 l 3.2854,-2.7882 c 1.7072,-1.4511 3.8295,-3.0288 5.9432,-4.5454 3.0005,-2.1527 5.3549,-3.3535 8.1451,-4.0235 2.2506,-0.5403 4.827,-1.038 6.5254,-1.1812 l 0.8891,-0.0308 c 0.1188,0.007 -0.1765,-0.1006 -0.0106,-0.0302 0.0768,0.0326 -0.4734,-0.3466 -0.3333,-0.2181 0.1311,0.1203 -0.4449,-0.787 -0.3604,-0.548 0.0745,0.211 -0.0445,-0.8172 -0.0683,-0.6289 -0.02,0.1585 0.1501,-0.471 0.107,-0.3775 -0.0695,0.1507 0.1891,-0.2812 0.1602,-0.2496 l -0.4695,0.2998 c -0.7311,0.418 -0.985,1.3495 -0.567,2.0806 0.4179,0.7311 1.3494,0.985 2.0805,0.567 0.4816,-0.2753 0.8611,-0.5076 1.2149,-0.8986 0.1636,-0.1809 0.3534,-0.4181 0.4583,-0.8244 0.2163,-0.8378 -0.5632,-1.8148 -1.0439,-2.015 -1.3661,-0.569 -2.4932,-0.1897 -4.0988,0.0541 -1.6599,0.2521 -3.5118,0.6312 -5.1956,1.0354 -3.2125,0.7715 -6.0183,2.2205 -9.2109,4.5111 -2.1463,1.54 -4.3217,3.1535 -6.1406,4.6996 l -3.2304,2.7426 c -2.9655,2.4037 -6.3906,4.9447 -9.8527,7.3145 -3.8669,2.6472 -7.4938,5.484 -11.3874,9.2035 l -5.7813,5.4185 c -1.1677,1.1274 -1.9111,1.9028 -2.7047,2.4462 -1.6752,1.1469 -3.9703,1.9213 -5.882,3.8626 -3.0355,3.0828 -5.6203,7.3798 -9.0284,10.0182 l -2.5226,1.9005 c -2.0814,1.6257 -3.925,3.1822 -6.0931,4.6914 -3.1668,2.2045 -6.5856,4.1393 -9.4738,5.5264 -4.761,2.2869 -8.5519,4.864 -13.2214,7.1572 -5.2041,2.5555 -12.1834,2.1071 -14.2636,-0.984 l -0.9569,-1.4103 -0.2051,-0.3896 c -0.007,-0.0194 0.014,0.101 0.007,0.0454 -0.009,-0.0661 -0.0735,0.5195 -0.0291,0.3537 0.0273,-0.1017 -0.2347,0.4844 -0.1543,0.3547 0.0776,-0.1252 -0.448,0.4596 -0.3172,0.3558 0.2444,-0.1938 -0.9265,0.3107 -0.7276,0.2931 0.1608,-0.0143 -0.4057,-0.0308 -0.3369,-0.0168 0.1846,0.0376 -0.0658,-0.0171 0.1119,0.0826 l 0.7914,0.4725 c 0.7195,0.4353 1.4474,0.9094 1.8022,1.4396 0.6642,0.9928 1.1938,2.1818 1.3959,3.2962 0.184,1.0144 0.1548,2.0178 -0.005,2.9992 -0.2749,1.691 -0.9736,3.2824 -1.9035,4.7044 -2.0285,3.1025 -5.0521,5.8483 -8.5297,8.229 -7.645,5.2334 -16.0065,11.6423 -23.8638,16.6875 -8.8004,5.6509 -18.5254,12.3942 -29.4395,16.9438 -12.0083,5.0058 -22.7421,11.1254 -31.5353,14.5246 -3.1821,1.2299 -6.11,2.8454 -8.246,5.0678 -2.1171,2.2027 -3.4013,5.1822 -3.0259,8.4598 0.5896,5.1484 3.1771,9.8608 3.2484,12.7832"
         style="fill:#000000;fill-opacity:1;fill-rule:nonzero;stroke:none"
         id="path288" /><path
         d="m 228.0514,699.0971 c 0.4832,0.6897 1.4341,0.8571 2.1238,0.3738 0.6897,-0.4832 0.857,-1.4341 0.3737,-2.1238 -2.4853,-3.5469 -5.3794,-9.5091 -8.3508,-14.5534 -1.4449,-2.4527 -2.8192,-4.5969 -4.2845,-6.0601 -0.7114,-0.7103 -1.464,-1.3149 -2.459,-1.5363 -1.0244,-0.228 -2.2569,0.2579 -2.9247,1.0942 -0.5255,0.6581 -0.4181,1.6175 0.24,2.143 0.6581,0.5255 1.6176,0.418 2.1431,-0.24 0.1181,-0.148 -0.1228,-0.0208 -0.1209,-0.0204 0.1809,0.0403 1.2013,0.8284 2.2593,2.2614 3.5539,4.8135 7.3755,13.4889 11,18.6616"
         style="fill:#ed3624;fill-opacity:1;fill-rule:nonzero;stroke:none"
         id="path290" /></g></g></svg>
