<?xml version="1.0" encoding="UTF-8" standalone="no"?>
<!-- Created with Inkscape (http://www.inkscape.org/) -->

<svg
   width="172.19417mm"
   height="136.58969mm"
   viewBox="0 0 172.19417 136.58969"
   version="1.1"
   id="svg5"
   xml:space="preserve"
   inkscape:version="1.2.1 (0f2f062aeb, 2022-09-21, custom)"
   sodipodi:docname="wheel_figure.svg"
   xmlns:inkscape="http://www.inkscape.org/namespaces/inkscape"
   xmlns:sodipodi="http://sodipodi.sourceforge.net/DTD/sodipodi-0.dtd"
   xmlns="http://www.w3.org/2000/svg"
   xmlns:svg="http://www.w3.org/2000/svg"><sodipodi:namedview
     id="namedview7"
     pagecolor="#ffffff"
     bordercolor="#000000"
     borderopacity="0.25"
     inkscape:showpageshadow="2"
     inkscape:pageopacity="0.0"
     inkscape:pagecheckerboard="0"
     inkscape:deskcolor="#d1d1d1"
     inkscape:document-units="mm"
     showgrid="false"
     inkscape:zoom="0.93806818"
     inkscape:cx="222.7983"
     inkscape:cy="367.2441"
     inkscape:window-width="3390"
     inkscape:window-height="1376"
     inkscape:window-x="50"
     inkscape:window-y="27"
     inkscape:window-maximized="1"
     inkscape:current-layer="g154" /><defs
     id="defs2"><clipPath
       clipPathUnits="userSpaceOnUse"
       id="clipPath164"><path
         d="M -1.457931,-1.457931 H 613.45797 V 804.70797 H -1.457931 Z"
         id="path162" /></clipPath><clipPath
       clipPathUnits="userSpaceOnUse"
       id="clipPath208"><path
         d="M 0,0 H 612 V 803.25 H 0 Z"
         id="path206" /></clipPath></defs><g
     inkscape:label="Layer 1"
     inkscape:groupmode="layer"
     id="layer1"
     transform="translate(-4.5632539e-7,-0.20567915)"><g
       id="g154"
       inkscape:label="Notat 5. okt. 2022 (2)(2)"
       transform="matrix(0.35277777,0,0,-0.35277777,127.06671,231.74275)"><g
         id="g156" /><g
         id="g202"
         transform="translate(-447.5888,-89.080633)"><g
           id="g204"
           clip-path="url(#clipPath208)"><path
             d="m 149.5035,596.8413 c 0.7973,0.7143 2.0227,0.647 2.7371,-0.1504 0.7143,-0.7973 0.647,-2.0227 -0.1504,-2.7371 -4.1913,-3.7549 -9.6723,-9.9824 -15.423,-17.3579 -4.5697,-5.8607 -9.1382,-12.4229 -13.5428,-19.2354 -4.2761,-6.6139 -8.5166,-13.3265 -12.2238,-20.5139 -11.48606,-22.2691 -18.86267,-48.2003 -19.57066,-72.5906 -0.34779,-11.9813 0.96821,-23.5826 4.94776,-34.0989 8.7857,-23.2173 32.0278,-42.4454 61.1431,-54.3264 15.7732,-6.4365 33.2568,-10.5664 52.0237,-12.5596 8.3365,-0.8854 16.9583,-1.2201 25.6177,-1.166 13.8237,0.0864 27.7433,1.4728 42.033,4.3742 15.0524,3.0562 30.3306,7.868 44.547,13.1156 16.3203,6.0243 30.9383,13.0526 43.2549,20.6758 10.0141,6.1981 18.3917,12.6201 25.1941,19.2514 6.6517,6.4843 11.8216,13.2 15.5868,20.0833 11.0715,20.2397 10.0413,42.9617 1.5015,64.8536 -7.6157,19.5232 -17.9571,38.8321 -31.0344,56.4114 -21.9016,29.4412 -57.5866,51.4271 -96.9782,60.9702 -23.2074,5.6222 -48.0489,6.7103 -71.0193,3.952 -17.7136,-2.1272 -34.1681,-7.4774 -46.552,-12.9207 -4.004,-1.76 -7.3435,-3.3952 -9.9887,-4.9339 -3.7329,-2.1714 -5.8985,-4.1655 -6.4547,-5.4683 -0.4515,-1.0575 -0.2144,-1.85 1.6088,-3.2758 0.8433,-0.6595 0.9923,-1.8777 0.3328,-2.721 -0.6595,-0.8433 -1.8777,-0.9922 -2.721,-0.3328 -1.7264,1.3502 -3.0165,2.9992 -3.2393,4.9584 -0.6663,5.8586 7.0057,10.0933 18.9022,15.3224 6.2462,2.7455 13.5476,5.4727 21.5789,7.8108 8.148,2.372 16.9518,4.3148 26.0708,5.4099 23.4188,2.8122 48.6876,1.7098 72.3943,-4.0333 40.1967,-9.7381 76.6408,-32.1313 99.1758,-62.424 13.3029,-17.8826 23.8021,-37.4913 31.5357,-57.3165 8.8321,-22.6414 9.9833,-46.7425 -1.7121,-68.1229 -3.9681,-7.2541 -9.3864,-14.2769 -16.2818,-20.9988 -7.0383,-6.8612 -15.644,-13.4488 -25.86,-19.7718 -12.5703,-7.7803 -27.4142,-14.9115 -43.9527,-21.0162 -14.3474,-5.296 -29.7972,-10.1672 -45.118,-13.278 -14.5351,-2.9511 -28.7139,-4.3637 -42.7801,-4.4516 -8.7785,-0.0549 -17.5415,0.2838 -26.0514,1.1876 -19.0806,2.0265 -36.9231,6.2326 -53.079,12.8253 -29.8151,12.1666 -53.9952,31.9437 -63.30418,56.5436 -4.20675,11.1167 -5.55551,23.234 -5.19704,35.5835 0.72793,25.0774 8.26106,51.4951 20.00032,74.2552 3.8042,7.3754 8.1177,14.1969 12.4137,20.8416 4.4537,6.8885 9.0816,13.5385 13.7411,19.5144 5.8418,7.4923 11.398,13.8342 15.8935,17.8616"
             style="fill:#000000;fill-opacity:1;fill-rule:nonzero;stroke:none"
             id="path210" /><path
             d="m 246.6362,504.4664 c 0.8684,-0.626 1.0649,-1.8375 0.439,-2.7059 -0.626,-0.8684 -1.8375,-1.065 -2.7059,-0.439 -1.5617,1.1257 -2.1109,0.9229 -2.4185,0.6043 -0.375,-0.3884 -0.5322,-0.684 -0.5502,-0.8 -0.092,-0.593 0.0123,-1.2551 0.1948,-1.5888 0.1019,-0.1863 -0.2082,0.22 -0.1361,0.1878 0.3869,-0.1728 1.8469,-0.2365 3.0176,-0.0125 1.0963,0.2098 2.3013,1.3528 2.718,2.4172 0.1968,0.5028 -0.4072,1.4857 -1.6983,1.9644 -1.2558,0.4655 -2.1184,0.4222 -2.5405,-1.0588 -0.2935,-1.0295 -1.3659,-1.6263 -2.3954,-1.3328 -1.0296,0.2934 -1.6263,1.3658 -1.3329,2.3954 0.5106,1.7913 1.7824,3.1796 3.2753,3.7331 2.1898,0.812 4.4996,0.152 6.1985,-1.1058 1.7019,-1.2601 3.0259,-3.6515 2.1032,-6.0086 -0.8851,-2.2613 -2.8888,-4.2931 -5.5994,-4.8117 -1.0977,-0.21 -2.3076,-0.3133 -3.5099,-0.1809 -1.2092,0.1332 -2.6879,0.4656 -3.5014,1.9532 -0.7076,1.2939 -0.8289,2.7248 -0.6244,4.043 0.2069,1.3338 0.9683,2.2523 1.5922,2.8985 1.8073,1.8719 5.0071,1.6262 7.4743,-0.1521"
             style="fill:#000000;fill-opacity:1;fill-rule:nonzero;stroke:none"
             id="path212" /><path
             d="m 245.137,500.2472 c -0.7886,0.724 -0.8409,1.9502 -0.1169,2.7388 0.724,0.7885 1.9502,0.8409 2.7387,0.1168 1.8407,-1.69 3.8108,-4.2854 6.3272,-7.2706 2.5988,-3.083 5.6529,-6.4958 9.2855,-9.6261 9.9237,-8.5513 27.72,-15.592 40.6209,-24.3234 12.7026,-8.5971 22.2144,-14.7474 30.8035,-22.1605 4.0957,-3.535 7.9244,-6.4071 11.6858,-9.2516 l 5.578,-4.1384 c 1.1569,-0.8404 2.2884,-1.555 3.771,-2.6639 l 3.9593,-3.1089 c 3.2989,-2.6487 6.9022,-5.1714 9.8692,-7.12 l 3.2183,-2.1466 c 0.949,-0.6271 1.7735,-1.2771 2.4381,-1.6534 0.6484,-0.3669 1.1764,-0.7512 1.5743,-1.0174 l 0.4062,-0.2525 c 0.0549,-0.0286 -0.4578,0.065 -0.2177,0.0404 0.3485,-0.0356 -1.5772,-0.509 -1.1983,-0.2752 0.3657,0.2257 -0.8252,-1.0123 -0.7063,-0.773 0.1092,0.2196 -0.1901,-0.6441 -0.1685,-0.5165 0.0383,0.2268 -0.014,-0.4778 -0.0197,-0.4077 -0.0184,0.2236 -2.6262,6.8508 -5.963,11.6264 -1.9174,2.7442 -4.1947,5.2636 -6.0631,7.462 -0.8346,0.9819 -1.7822,1.7242 -2.5404,2.8852 -0.7489,1.1466 -1.739,2.2148 -1.6687,4.0346 0.0553,1.4353 1.0797,1.8533 1.5651,2.0558 1.3319,0.5557 2.7255,0.5614 3.9244,0.605 4.1161,0.1497 8.261,-2.5617 10.6059,-6.9995 1.0145,-1.9198 1.9493,-4.1859 2.229,-6.7013 0.6214,-5.5872 -3.7561,-11.1475 -8.246,-15.1327 -2.196,-1.9492 -4.4304,-3.4784 -6.5848,-4.213 -1.0569,-0.3604 -2.1664,-0.5761 -3.3287,-0.2193 -1.1986,0.3681 -2.1739,1.5825 -2.4024,2.8173 -0.1949,1.0526 0.5005,2.0639 1.5532,2.2587 1.0526,0.1948 2.0639,-0.5006 2.2587,-1.5532 0.0304,-0.164 -0.3777,0.2157 -0.2716,0.1832 0.007,-0.002 1.1896,0.1442 2.6582,0.9999 4.9371,2.8767 10.9786,10.2217 10.5105,14.4306 -0.2034,1.8287 -0.9315,3.668 -1.8037,5.3187 -1.7729,3.3551 -4.6637,5.0228 -7.0373,4.9365 -0.6679,-0.0243 -1.4759,-0.0872 -2.0745,-0.1918 l -0.4981,-0.1169 c -0.0131,-0.005 0.4364,0.3303 0.2657,0.1795 -0.0957,-0.0846 0.4396,0.605 0.3283,0.4084 -0.1169,-0.2063 0.2333,1.0808 0.2219,0.7846 -0.006,-0.1556 0.006,-0.0195 0.1757,-0.3518 l 0.865,-1.4134 c 0.2956,-0.4527 1.2079,-1.2702 2.2485,-2.4944 1.8214,-2.1432 4.1954,-4.7587 6.287,-7.7523 1.9852,-2.8411 3.6458,-6.0143 4.8659,-8.6751 0.5849,-1.2754 1.0448,-2.3866 1.3587,-3.2615 l 0.3454,-1.1133 0.0871,-0.677 c -1e-4,-0.1857 0.0183,-0.45 -0.2066,-0.9098 -0.2568,-0.5251 -1.2246,-1.1701 -1.9668,-1.0943 -1.9151,0.196 -2.4229,1.2283 -3.2782,1.7124 -1.0263,0.5811 -1.8903,1.2805 -2.6658,1.7929 l -3.2089,2.1404 c -3.0492,2.0025 -6.7349,4.5808 -10.1684,7.3375 l -3.8542,3.0275 c -1.3689,1.0239 -2.4612,1.712 -3.7273,2.6317 l -5.6379,4.1828 c -3.7596,2.8432 -7.6712,5.776 -11.8805,9.4089 -8.3383,7.1967 -17.7196,13.2733 -30.4434,21.8848 -12.405,8.3958 -30.2504,15.3525 -40.9786,24.5972 -3.8672,3.3324 -7.0571,6.9064 -9.719,10.0642 -2.5613,3.0385 -4.5706,5.6151 -5.9849,6.9136"
             style="fill:#000000;fill-opacity:1;fill-rule:nonzero;stroke:none"
             id="path214" /><path
             d="m 271.3152,429.0027 c -0.2586,1.0388 0.3739,2.0906 1.4127,2.3492 1.0388,0.2587 2.0905,-0.3738 2.3492,-1.4126 0.3509,-1.4094 1.2354,-3.6289 1.9648,-5.7115 0.3682,-1.0513 0.5705,-2.016 0.7326,-2.8225 0.1304,-0.6487 0.5315,-1.2064 0.5725,-2.4177 0.0381,-1.1267 -1.2126,-2.0461 -1.8331,-2.1331 -1.5203,-0.2133 -2.3354,0.4194 -3.2343,1.3544 -1.565,1.6281 -2.2075,4.0497 -2.8109,6.8461 -0.6183,2.8656 -1.0047,6.0607 -1.192,9.0874 -0.2619,4.2309 -0.054,7.7674 1.841,10.4542 1.9033,2.6986 5.3173,4.1088 9.8929,4.9378 1.0533,0.1908 2.062,-0.5084 2.2528,-1.5618 0.1909,-1.0533 -0.5084,-2.062 -1.5617,-2.2528 -7.8674,-1.4254 -9.0214,-3.8136 -8.5557,-11.3379 0.3564,-5.7589 1.7846,-12.2965 2.9283,-13.4863 l 0.3132,-0.2115 c 0.003,-10e-4 -0.1283,0.0216 -0.0756,0.0146 0.0447,-0.006 -0.3165,0.001 -0.2137,0.007 0.0829,0.005 -0.4665,-0.0936 -0.3282,-0.0551 0.1092,0.0305 -0.5256,-0.2404 -0.382,-0.1591 0.2259,0.1277 -0.851,-0.9746 -0.6688,-0.6622 0.1836,0.3149 -0.2369,-1.2635 -0.2467,-0.9727 -0.008,0.2307 -0.2742,0.6681 -0.4987,1.7848 -0.1531,0.7619 -0.3187,1.5284 -0.5907,2.3052 -0.6948,1.9839 -1.6056,4.1997 -2.0679,6.0562"
             style="fill:#000000;fill-opacity:1;fill-rule:nonzero;stroke:none"
             id="path216" /><path
             d="m 248.6081,505.5717 c 0.8986,0.5818 2.0987,0.3249 2.6805,-0.5737 0.5818,-0.8986 0.3249,-2.0988 -0.5737,-2.6805 l -0.2991,-0.2133 c -0.0227,-0.0235 0.2416,0.373 0.1618,0.2282 -0.0865,-0.1569 0.1956,1.1545 0.196,0.7879 5e-4,-0.3699 -0.5567,1.3171 -0.3532,1.0493 0.1863,-0.2451 -0.6295,0.5058 -0.5024,0.437 0.2095,-0.1134 -0.2454,0.0941 -0.1841,0.0846 1.0176,-0.1577 5.0766,0.2451 10.5049,0.8325 5.7628,0.6235 12.9403,1.3867 20.884,1.8273 11.839,0.6565 25.211,0.1158 38.9203,0.1291 h 63.924 c 19.6782,0.028 42.1782,-0.1947 63.9419,-10e-5 14.7764,0.132 27.1028,0.3097 37.3544,0.2942 h 13.3869 18.1788 c 2.2808,0 3.8838,-0.1708 4.9591,-0.019 1.362,0.1923 2.3103,0.1823 2.3793,0.2146 0.1819,0.0851 -0.2748,-0.2221 -0.2713,-0.216 0.0646,0.1129 0.2182,1.1061 0.1138,1.9674 -0.2149,1.7713 -3.5283,4.6928 -6.6747,7.2642 -1.2204,0.9974 -2.3177,1.9874 -3.2992,2.8902 -0.8731,0.803 -1.5046,1.5958 -1.9034,2.0694 l -0.0252,0.0303 c -0.0204,0.0161 0.2859,-0.1636 0.1715,-0.1056 -0.0486,0.0247 0.335,-0.1305 0.2233,-0.093 -0.0528,0.0178 0.2972,-0.0753 0.2074,-0.0564 -0.0896,0.0189 0.5511,-0.0418 0.3779,-0.0405 -0.176,10e-4 1.1191,0.3043 0.7718,0.1556 -0.1732,-0.0742 0.7387,0.5312 0.5537,0.3597 -0.1832,-0.1699 0.5612,0.8788 0.454,0.6363 -0.1029,-0.2327 0.1736,0.8884 0.1625,0.6797 -0.0205,-0.3856 -0.2202,1.0251 -0.1435,0.8394 0.1298,-0.3141 -0.4158,0.6281 -0.3329,0.5343 0.1288,-0.1455 -0.3102,0.279 -0.2566,0.2386 0.133,-0.1002 -0.1481,0.0947 -0.1173,0.0804 1.0279,-0.4768 3.7422,-1.2828 6.5746,-2.1798 1.1105,-0.3517 2.5121,-0.5664 4.0357,-1.0516 5.3156,-1.6932 10.2689,-5.6988 11.8238,-10.918 0.4881,-1.6382 0.5556,-3.4135 0.1576,-5.1478 -1.3172,-5.7403 -7.7559,-9.8111 -12.9414,-13.4284 -3.2354,-2.2569 -6.1954,-3.8273 -8.2898,-5.3637 -1.9595,-1.4374 -3.0067,-2.7088 -3.2123,-4.4902 -0.1227,-1.0634 -1.0843,-1.8261 -2.1477,-1.7033 -1.0635,0.1227 -1.8261,1.0843 -1.7034,2.1477 0.36,3.1203 2.3917,5.4267 4.7705,7.1717 2.4176,1.7735 5.3346,3.3036 8.3648,5.4174 5.1071,3.5625 10.6319,7.8522 11.3809,11.1159 0.2495,1.0874 0.206,2.1651 -0.0945,3.1738 -1.0534,3.5358 -5.0369,6.9779 -9.285,8.331 -1.1781,0.3752 -2.5627,0.5851 -4.0297,1.0497 -2.7961,0.8856 -5.4181,1.6085 -7.0357,2.359 -0.2181,0.1012 -0.3924,0.1796 -0.6606,0.4004 -0.1156,0.0951 -0.2982,0.1348 -0.5651,0.7385 -0.1422,0.3218 -0.3453,1.055 0.1268,1.8136 0.4406,0.7082 1.1185,0.8735 1.4601,0.9072 0.985,0.0973 0.9837,-0.1474 1.1389,-0.2276 0.4224,-0.218 0.7203,-0.4852 1.0505,-0.8775 0.4347,-0.5163 0.9357,-1.1368 1.5622,-1.7129 0.9575,-0.8807 1.9969,-1.8174 3.128,-2.7417 3.1132,-2.5443 7.5304,-5.3508 8.0699,-9.7992 0.107,-0.8813 0.1333,-1.848 -0.0564,-2.8342 -0.1929,-1.0033 -0.6519,-2.2687 -1.9916,-2.8954 -1.5059,-0.7046 -2.7043,-0.4323 -3.4803,-0.5419 -1.7658,-0.2491 -3.4264,-0.019 -5.501,-0.019 h -18.1788 -13.3927 c -10.2068,0.0154 -22.528,-0.1619 -37.314,-0.2941 -21.8098,-0.1949 -44.3213,0.028 -63.9709,0 h -63.9258 c -13.7949,-0.0134 -27.1268,0.5191 -38.7095,-0.1232 -10.0849,-0.5592 -18.9107,-1.6503 -25.1551,-2.2873 -2.8967,-0.2955 -5.0435,-0.5107 -6.6039,-0.3833 -0.3805,0.031 -0.747,0.0723 -1.1929,0.2441 -0.3574,0.1376 -0.875,0.3859 -1.2343,1.054 -0.5671,1.0548 -0.01,2.1368 0.3596,2.5625 0.344,0.3965 0.6956,0.6415 1.0973,0.9015"
             style="fill:#ed3624;fill-opacity:1;fill-rule:nonzero;stroke:none"
             id="path218" /><path
             d="m 248.1341,505.0168 c -0.0114,-1.0705 -0.8884,-1.929 -1.9589,-1.9177 -1.0704,0.0114 -1.929,0.8884 -1.9176,1.9589 0.0437,4.1063 -0.0305,7.0306 -0.1568,11.2691 -0.1748,5.8683 -0.8812,14.0619 -1.8763,23.4724 -1.0213,9.6575 -2.3216,20.2745 -3.7157,30.7991 -3.3997,25.6649 -4.9647,48.7304 -6.1574,70.0811 -0.9238,16.537 -1.0422,32.5263 -0.8219,45.8246 0.1025,6.1877 -0.0722,11.4879 -0.1261,16.0839 l -2e-4,4.6979 1e-4,2.2464 c -0.005,0.7533 0.0877,1.3808 0.1505,1.7799 l 0.0329,0.1844 c 0.003,0.049 0.0325,-0.4679 0.0113,-0.2975 -0.009,0.0705 0.0869,-0.387 0.0549,-0.2726 -0.0296,0.1058 0.2433,-0.5486 0.1588,-0.3922 -0.0778,0.1438 0.5356,-0.64 0.3633,-0.4755 -0.1556,0.1484 0.8226,-0.4818 0.5907,-0.3854 -0.2034,0.0846 0.8251,-0.1564 0.6231,-0.1441 -0.3438,0.0208 1.0164,0.2068 0.8184,0.1291 -0.2748,-0.1079 0.617,0.3881 0.5175,0.3053 -0.0913,-0.076 0.221,0.2177 0.1826,0.1751 -0.1222,-0.1356 0.0827,0.1215 0.0302,-0.011 -0.207,-0.5225 -0.4623,-1.7622 -0.9825,-3.1236 -2.0315,-5.3164 -6.5117,-12.3244 -10.5646,-17.7057 -1.9095,-2.5352 -3.4889,-4.4641 -5.3197,-5.4556 -0.9726,-0.5267 -2.7171,-0.6608 -3.7302,0.3804 -0.9634,0.99 -1.1004,2.1897 -1.1464,3.5269 -0.1223,3.556 0.9418,8.1207 2.0693,12.7935 1.4763,6.1187 3.3751,11.7081 5.1934,15.6906 0.6218,1.3618 1.0979,2.5358 1.74,3.5594 0.6436,1.0262 1.7491,2.0785 3.1941,2.2287 1.1199,0.1163 2.7167,0.1238 4.2982,-0.724 3.0663,-1.644 4.1437,-5.3413 6.0589,-8.2493 5.0269,-7.6325 13.4352,-13.3893 14.6741,-13.6175 1.0528,-0.1938 1.7491,-1.2045 1.5552,-2.2573 -0.1938,-1.0528 -1.2045,-1.7491 -2.2573,-1.5553 -2.182,0.4018 -4.5301,2.1749 -7.6428,4.7745 -3.2549,2.7183 -6.7825,6.2958 -9.5668,10.5233 -2.1469,3.2599 -3.809,6.5124 -4.6531,6.965 -0.6504,0.3487 -1.2868,0.3656 -2.0658,0.2846 -0.008,-8e-4 0.0137,0.0844 -0.3106,-0.4326 -0.3835,-0.6115 -0.8571,-1.7068 -1.4976,-3.1096 -1.6773,-3.6739 -3.5292,-9.0956 -4.9514,-14.9898 -1.1079,-4.5918 -2.0557,-9.0662 -1.9634,-11.7509 l 0.1167,-0.9781 c 0.0312,-0.1145 -0.0304,-0.0113 0.0125,-0.0731 0.0407,-0.0586 -0.407,0.3328 -0.2679,0.2459 0.2167,-0.1355 -0.8094,0.1494 -0.6559,0.1644 0.1278,0.0125 -0.1293,-0.0341 -0.0493,0.009 0.6904,0.3739 2.2837,2.0084 4.0691,4.379 3.8802,5.152 8.2739,12.1354 10.04,16.7573 0.5133,1.3433 0.3107,2.8122 1.6944,4.3466 0.09,0.0998 0.2019,0.2487 0.557,0.4376 0.3862,0.2055 1.4149,0.3683 2.1207,-0.1832 1.1594,-0.9059 0.7587,-1.421 0.755,-1.6172 -0.0166,-0.8886 -0.1853,-1.168 -0.1809,-1.8134 v -2.2927 l -1e-4,-4.6324 c 0.0533,-4.5428 0.2301,-9.9022 0.1259,-16.1935 -0.2191,-13.2219 -0.1007,-29.1267 0.8164,-45.5442 1.1904,-21.3117 2.749,-44.2658 6.1298,-69.7882 1.3976,-10.5511 2.7018,-21.1977 3.7278,-30.9005 1.0003,-9.4603 1.7158,-17.7109 1.8961,-23.7646 0.1266,-4.248 0.2026,-7.2556 0.1583,-11.4258"
             style="fill:#ed3624;fill-opacity:1;fill-rule:nonzero;stroke:none"
             id="path220" /><path
             d="m 144.4167,740.6073 c -0.9965,-0.3914 -2.1215,0.0992 -2.5128,1.0956 -0.3913,0.9964 0.0992,2.1214 1.0956,2.5128 2.5621,1.0062 6.1767,1.0208 10.0468,1.0586 1.7023,0.0167 3.4997,0.1144 5.2246,-0.005 0.9223,-0.0635 2.1446,0.5069 3.8926,-0.2998 1.6334,-0.754 1.8302,-2.4176 1.7925,-3.6169 -0.0378,-1.1997 -0.341,-2.4269 -0.7915,-3.6193 -1.0601,-2.8059 -3.3951,-5.0438 -5.286,-7.2567 -3.2799,-3.8383 -6.0234,-7.0528 -7.257,-9.3946 -0.4768,-0.9052 -0.5752,-1.6929 -0.4737,-2.2158 0.0478,-0.2468 0.2541,-0.5444 1.004,-0.9016 2.6908,-1.2819 8.5195,-1.1174 11.9417,-0.8552 1.0674,0.0818 1.999,-0.7171 2.0807,-1.7845 0.0818,-1.0674 -0.7171,-1.999 -1.7845,-2.0808 -2.3351,-0.179 -5.813,-0.3744 -9.1829,0.0177 -1.6751,0.1949 -3.2949,0.5229 -4.7223,1.203 -1.4265,0.6795 -2.8011,1.9036 -3.1425,3.663 -0.3012,1.5526 0.0365,3.2174 0.8496,4.7609 1.584,3.0072 4.4501,6.2567 7.7396,10.1063 1.9708,2.3064 3.9933,4.4844 4.6068,6.1083 0.3276,0.8672 0.5242,1.7661 0.5432,2.3713 l -0.029,0.4445 c -0.006,0.0159 0.1793,-0.2677 0.1047,-0.1743 -0.0813,0.1016 0.5439,-0.3699 0.382,-0.2952 -0.145,0.0669 -0.0594,0.002 -0.516,-0.0171 -0.5038,-0.0208 -1.1985,-0.0872 -2.0184,-0.0307 -1.4046,0.0968 -3.1315,0.013 -4.9203,-0.005 -3.7596,-0.0367 -7.3271,-0.2641 -8.6675,-0.7905"
             style="fill:#ed3624;fill-opacity:1;fill-rule:nonzero;stroke:none"
             id="path222" /><path
             d="m 147.3834,727.1879 c -0.6551,-0.8467 -1.8725,-1.0019 -2.7192,-0.3468 -0.8466,0.6551 -1.0019,1.8726 -0.3467,2.7192 1.8346,2.3709 5.1067,2.5534 8.8034,2.8732 3.7898,0.3279 7.926,0.2389 11.3799,-0.3869 1.0534,-0.1908 1.7526,-1.1995 1.5617,-2.2528 -0.1908,-1.0534 -1.1994,-1.7526 -2.2528,-1.5618 -2.9837,0.5406 -6.8851,0.6394 -10.3547,0.3393 -3.3501,-0.2898 -6.0605,-1.3691 -6.0716,-1.3834"
             style="fill:#ed3624;fill-opacity:1;fill-rule:nonzero;stroke:none"
             id="path224" /><path
             d="m 566.2635,495.1362 c 0.9614,-0.4709 1.3589,-1.6321 0.8879,-2.5934 -0.471,-0.9614 -1.6321,-1.3589 -2.5934,-0.8879 -0.1707,0.0836 0.6303,-0.1049 0.4979,-0.1099 -0.1997,-0.007 0.187,0.0465 0.0562,-0.0337 -0.5411,-0.3316 -1.6315,-1.5121 -2.6976,-2.9901 -2.5336,-3.5128 -4.8619,-8.1868 -6.9644,-11.8126 -1.0046,-1.7325 -1.8336,-3.1637 -2.9857,-4.1604 -0.5924,-0.5125 -1.6416,-1.1411 -2.8744,-0.6887 -1.212,0.4448 -1.6142,1.4567 -1.8568,2.2942 -0.2979,1.0282 0.2941,2.1033 1.3224,2.4011 1.0282,0.2979 2.1032,-0.2941 2.4011,-1.3224 l 0.0494,-0.1611 c 0.0237,-0.0359 -0.2318,0.2444 -0.1506,0.1708 0.1725,-0.1564 -1.1613,0.358 -0.8367,0.3405 0.2909,-0.0157 -0.6679,-0.1499 -0.5802,-0.1061 0.1047,0.0522 1.7161,2.3387 3.3976,5.3772 1.7545,3.1703 3.7064,6.8466 5.9341,9.9353 0.9113,1.2634 1.8325,2.4088 2.8329,3.2896 0.9875,0.8694 2.4379,1.9015 4.1603,1.0576"
             style="fill:#ed3624;fill-opacity:1;fill-rule:nonzero;stroke:none"
             id="path226" /><path
             d="m 548.5123,488.4811 c -0.718,-0.794 -1.9437,-0.8557 -2.7378,-0.1378 -0.7941,0.718 -0.8558,1.9437 -0.1378,2.7378 0.6601,0.73 1.803,1.2848 2.8752,1.1276 1.5362,-0.2251 2.3641,-1.2315 3.1657,-2.2147 0.8174,-1.0026 1.6067,-2.2027 2.4834,-3.4963 2.6926,-3.9728 7.6411,-8.3529 12.2046,-12.2412 2.2331,-1.9028 4.3055,-3.6204 5.9393,-5.1061 1.5531,-1.4123 3.0109,-2.0558 3.1975,-4.2993 0.0887,-1.0668 -0.7042,-2.0036 -1.771,-2.0923 -1.0669,-0.0887 -2.0036,0.7042 -2.0924,1.771 -0.0144,0.1734 0.0914,-0.3741 0.0712,-0.3237 -0.704,1.7592 -14.5736,10.9915 -20.7583,20.1166 -1.171,1.7278 -2.1458,3.1677 -2.8151,3.8193 l -0.3094,0.2579 c -0.0619,0.0381 0.761,0.1654 0.6849,0.0812"
             style="fill:#ed3624;fill-opacity:1;fill-rule:nonzero;stroke:none"
             id="path228" /><path
             d="m 258.6342,528.389 c 0.6786,-0.8661 0.5266,-2.1183 -0.3395,-2.7968 -0.8661,-0.6786 -2.1183,-0.5266 -2.7969,0.3395 -0.3178,0.4057 -0.2771,0.3696 -0.4853,0.4396 -0.4746,0.1596 -1.6085,0.2669 -3.0628,0.2173 -1.4933,-0.0509 -3.136,-0.2544 -4.7811,-0.6544 -1.6306,-0.3964 -3.4474,-1.1201 -5.3497,-2.001 -2.7117,-1.2554 -5.2053,-2.6154 -7.5382,-4.4374 -1.4156,-1.1056 -2.8043,-2.415 -4.0647,-3.8588 -0.8594,-0.9846 -1.6661,-2.0574 -2.3687,-3.1086 -0.7647,-1.1439 -1.352,-2.3205 -1.9231,-3.6006 -0.8504,-1.9062 -1.636,-3.9689 -2.3044,-6.1347 -0.4085,-1.3238 -0.7895,-2.6274 -1.0677,-3.8382 -0.3141,-1.3674 -0.456,-2.663 -0.5258,-3.9863 -0.3227,-6.1173 -0.0867,-12.4424 0.3901,-17.4325 0.2314,-2.4221 0.7484,-4.6437 1.363,-6.449 0.2985,-0.8767 0.6756,-1.6475 1.0784,-2.3416 0.668,-1.1509 1.4301,-2.1266 2.1894,-3.0282 l 1.5092,-1.8051 0.7032,-0.836 1.083,-1.083 0.3986,-0.2256 c 0.9435,-0.5204 1.3703,-0.9845 1.6127,-1.0994 l 0.913,-0.242 0.3955,-0.0615 c 0.2681,0.0251 -1.2028,-0.6031 -0.9133,-0.3722 0.2161,0.1724 -0.5708,-0.778 -0.4732,-0.5828 0.1388,0.2773 -0.1748,-0.786 -0.1694,-0.6405 0.005,0.1321 0.0292,-0.3112 0.0188,-0.2606 l -0.1956,0.4638 -0.8184,1.7575 c -0.6269,1.3529 -1.1997,3.0182 -1.8718,4.5418 -0.3066,0.6949 -0.8029,1.4974 -1.2491,2.5365 -0.3916,0.912 -0.6507,1.8606 -0.8657,2.8327 -0.2439,1.1028 -0.3725,2.1795 -0.5105,3.0128 l -0.1896,1.0943 -0.0528,0.1642 c -0.002,0.005 0.0494,-0.0862 0.0252,-0.0456 -0.014,0.0236 0.1094,-0.159 0.0719,-0.1079 -0.0413,0.0563 0.3755,-0.3885 0.2365,-0.2617 l 2.6848,2.9439 c 1.2093,-1.103 0.668,-1.3299 0.6803,-1.5026 l 0.0821,-0.8298 c 0.2633,-0.7733 3.5662,-3.5006 5.8096,-6.9253 0.938,-1.4319 1.596,-2.8992 1.9155,-4.3311 0.1872,-0.8392 0.3698,-1.8609 0.0801,-2.9988 -0.5271,-2.0699 -2.1307,-3.2806 -3.5614,-4.2569 -0.8723,-0.5952 -1.7713,-1.0486 -2.5654,-1.4302 -2.597,-1.248 -3.643,-1.2456 -4.875,-3.2334 -0.5797,-0.9352 -1.8077,-1.2234 -2.7429,-0.6437 -0.9352,0.5796 -1.2234,1.8076 -0.6437,2.7428 1.8494,2.9838 4.342,3.6713 6.536,4.7256 0.7191,0.3455 1.4476,0.7223 2.0452,1.1301 1.1199,0.7642 1.8615,1.6171 1.9461,1.9489 0.0442,0.1739 0.0308,0.5269 -0.1077,1.1479 -0.1923,0.8613 -0.6494,1.9311 -1.3598,3.0155 -1.7175,2.622 -5.1454,4.5852 -6.2483,7.8242 -0.208,0.6108 -0.2462,1.1313 -0.2678,1.4992 l -0.017,0.3332 c -5e-4,0.007 0.039,-0.2307 0.0183,-0.1232 -0.0122,0.0628 0.1449,-0.4514 0.0876,-0.3027 -0.031,0.0803 0.2176,-0.4171 0.1458,-0.2978 -0.0758,0.1259 0.5304,-0.5935 0.3573,-0.4356 -0.8129,0.7415 -0.8708,2.0015 -0.1293,2.8144 0.7414,0.8128 2.0012,0.8708 2.8141,0.1296 0.9226,-0.8412 0.7535,-1.1222 0.9068,-1.754 l 0.2484,-1.3826 c 0.1559,-0.9412 0.2796,-1.9425 0.47,-2.8033 0.1834,-0.8295 0.3869,-1.54 0.6364,-2.1209 0.3096,-0.7209 0.7932,-1.5027 1.2334,-2.5005 0.7504,-1.7011 1.3453,-3.4038 1.8415,-4.4748 l 0.788,-1.6933 c 0.2115,-0.4358 0.4023,-0.8589 0.5137,-1.4008 0.0741,-0.3607 0.1425,-0.8112 -0.0815,-1.4333 -0.244,-0.6774 -1.1285,-1.4067 -1.9141,-1.4801 -0.608,-0.0567 -1.0384,0.0304 -1.4617,0.1055 -0.5368,0.0952 -1.2046,0.2237 -1.9242,0.5651 -1.0524,0.499 -1.5614,1.0625 -1.8295,1.2104 -0.197,0.1086 -0.6275,0.3028 -1.1031,0.7202 l -1.3995,1.3937 -0.7992,0.9455 -1.5157,1.8127 c -0.832,0.9879 -1.7545,2.1591 -2.5878,3.5949 -0.5063,0.8723 -1.0058,1.8872 -1.4042,3.0575 -0.7139,2.0972 -1.2947,4.6025 -1.5575,7.354 -0.4952,5.1827 -0.7382,11.6604 -0.4027,18.0214 0.078,1.4782 0.2438,3.0242 0.6215,4.6686 0.314,1.3664 0.7222,2.755 1.1437,4.1209 0.7176,2.3251 1.5589,4.5344 2.4729,6.5831 0.619,1.3875 1.312,2.7894 2.2493,4.1915 0.7897,1.1814 1.6917,2.3829 2.6796,3.5146 1.4288,1.6367 2.994,3.1136 4.6138,4.3787 2.6518,2.0712 5.4441,3.5831 8.3166,4.913 2.0324,0.941 4.0612,1.7655 6.0824,2.2569 1.933,0.47 3.8339,0.7052 5.5869,0.7649 1.681,0.0572 3.1472,0.0214 4.4683,-0.4228 1.0228,-0.3439 1.8318,-1.0951 2.3518,-1.7589"
             style="fill:#ed3624;fill-opacity:1;fill-rule:nonzero;stroke:none"
             id="path230" /><path
             d="m 192.3364,496.5121 c -0.5196,-0.9698 -1.7271,-1.3348 -2.6969,-0.8151 -0.9698,0.5196 -1.3348,1.727 -0.8151,2.6968 0.1345,0.2512 -0.0922,-0.6413 -0.1077,-0.5692 -0.0104,0.0486 -0.4961,0.7301 -1.2704,1.1064 -0.3917,0.1903 -0.9106,0.3025 -1.5655,0.2872 l -1.3466,-0.0163 c -0.7291,-0.195 -2.4391,-2.5855 -2.8453,-5.1124 -0.1244,-0.7737 -0.1654,-1.4869 -0.078,-2.1032 0.1061,-0.7469 0.5437,-1.5993 1.1759,-2.3346 0.6968,-0.8105 2.2493,-1.4135 3.8796,-1.618 1.0676,-0.1338 2.0319,-0.1085 2.783,0.1059 0.9842,0.281 1.9707,1.2218 2.5963,2.2828 0.4021,0.6817 0.5639,1.4964 0.5287,2.3575 -0.027,0.6622 -0.0672,1.1587 -0.1784,1.5066 -0.4393,1.3751 -1.9618,2.9385 -3.5446,4.0912 -0.7725,0.5626 -1.5145,1.0127 -2.0772,1.3203 l -0.6039,0.3084 -0.0521,0.0241 c -0.0256,0.009 0.3687,-0.0916 0.2174,-0.0602 -0.0886,0.0184 0.8172,-0.0176 0.5134,-0.0363 -0.3612,-0.0222 2.0868,2.8139 1.82,1.5683 -0.2304,-1.0758 -1.2893,-1.7612 -2.3652,-1.5308 -1.0758,0.2304 -1.7612,1.2894 -1.5308,2.3652 0.2675,1.249 1.4636,1.5515 1.8312,1.5742 0.9923,0.061 0.8381,-0.1198 0.9593,-0.1677 0.8613,-0.3398 2.3369,-1.1413 4.075,-2.4747 1.8022,-1.3825 3.7393,-3.2227 4.5529,-5.7695 0.3095,-0.9685 0.335,-1.8447 0.3641,-2.5565 0.0603,-1.4774 -0.2194,-3.0887 -1.0777,-4.5441 -0.9981,-1.6925 -2.6029,-3.4243 -4.9346,-4.0901 -1.4594,-0.4166 -2.9506,-0.4063 -4.3725,-0.228 -2.2067,0.2768 -4.7039,0.9951 -6.4052,2.9739 -1.0159,1.1816 -1.856,2.6574 -2.0994,4.3721 -0.1653,1.1646 -0.075,2.276 0.0889,3.2956 0.566,3.521 2.1965,7.379 5.7498,8.3291 1.0847,0.2901 1.8977,0.1416 2.2834,0.1505 1.179,0.0275 2.3494,-0.1765 3.3995,-0.6869 1.1047,-0.5367 2.0278,-1.2946 2.6859,-2.2297 0.6616,-0.9399 1.2203,-2.359 0.4628,-3.7728"
             style="fill:#ed3624;fill-opacity:1;fill-rule:nonzero;stroke:none"
             id="path232" /><path
             d="m 191.9925,512.131 c 0.9981,-0.463 1.4318,-1.6475 0.9687,-2.6456 -0.463,-0.998 -1.6475,-1.4317 -2.6456,-0.9687 -0.3035,0.1408 1.326,-0.1208 1.0037,-0.1595 -0.273,-0.0328 0.8068,0.293 0.6488,0.2065 -0.255,-0.1396 0.4794,0.4022 0.421,0.3336 -0.1209,-0.1419 -0.0278,-0.0516 -0.1791,-0.4444 -0.1853,-0.481 -0.4052,-1.1058 -0.6318,-1.9634 -0.6719,-2.543 -1.3559,-6.4104 -2.0496,-10.3941 -0.3973,-2.2814 -0.7959,-4.4917 -1.0504,-6.4913 -0.2396,-1.8821 -0.2889,-3.5916 -0.297,-5.0608 -0.0115,-2.1006 0.3269,-3.298 0.537,-4.5377 0.2176,-1.2834 -0.036,-3.0864 -1.1534,-4.4773 -0.6891,-0.8577 -1.9431,-0.9944 -2.8008,-0.3053 -0.8577,0.6891 -0.9944,1.9431 -0.3053,2.8008 0.5545,0.6902 0.4626,0.5406 0.3312,1.3159 -0.1631,0.9619 -0.607,2.678 -0.593,5.2254 0.008,1.5491 0.0603,3.4327 0.3288,5.5421 0.2724,2.1395 0.6818,4.3989 1.0776,6.6718 0.6967,4.001 1.3769,7.9054 2.1227,10.7282 0.2684,1.0161 0.5431,1.7997 0.7659,2.3779 0.2028,0.5265 0.394,0.9611 0.7061,1.3941 0.1626,0.2255 0.3629,0.4836 0.7729,0.7311 0.4471,0.27 1.3181,0.4472 2.0216,0.1207"
             style="fill:#ed3624;fill-opacity:1;fill-rule:nonzero;stroke:none"
             id="path234" /></g></g><ellipse
         style="fill:#ff0000;fill-opacity:1;stroke-width:1.41732"
         id="path309"
         cx="-258.18396"
         cy="-429.85233"
         transform="scale(1,-1)"
         rx="2.3339806"
         ry="2.3952966" /></g></g></svg>
